<svg width="101" height="54" viewBox="0 0 101 54" fill="none" xmlns="http://www.w3.org/2000/svg">
<path fill-rule="evenodd" clip-rule="evenodd" d="M38.0078 15.7955C40.378 15.7955 42.0436 14.5771 42.0436 12.4038V12.3738C42.0436 10.4679 40.7862 9.67131 38.557 9.09389C36.6574 8.60922 36.1859 8.37371 36.1859 7.65717V7.62444C36.1859 7.0934 36.6736 6.67056 37.5985 6.67056C38.3528 6.67056 39.107 6.93699 39.9073 7.40529C40.0952 7.51441 40.2841 7.57805 40.5198 7.57805C41.1475 7.57805 41.6498 7.0934 41.6498 6.46869C41.6498 5.99948 41.3842 5.67213 41.1169 5.51481C40.1277 4.89103 38.9661 4.54639 37.6301 4.54639C35.3856 4.54639 33.7831 5.85946 33.7831 7.84357V7.87449C33.7831 10.0469 35.212 10.6552 37.427 11.218C39.2643 11.6863 39.6409 11.9992 39.6409 12.6075V12.6402C39.6409 13.2795 39.0429 13.6696 38.0538 13.6696C36.9862 13.6696 36.0756 13.2967 35.2438 12.6857C35.0419 12.5417 34.8 12.4653 34.5528 12.4675C33.924 12.4675 33.4218 12.9521 33.4218 13.5768C33.4218 13.9515 33.6105 14.2952 33.8771 14.4825C35.086 15.3393 36.5292 15.7981 38.0078 15.7955ZM61.1526 9.29667H60.4859C60.3527 9.29751 60.2205 9.27185 60.0971 9.22119C59.9737 9.17052 59.8613 9.09582 59.7666 9.00138C59.6718 8.90694 59.5966 8.79461 59.5449 8.67084C59.4934 8.54706 59.4668 8.41427 59.4661 8.28005C59.4668 8.14593 59.4937 8.01323 59.5454 7.88961C59.597 7.76597 59.6725 7.65382 59.7673 7.55961C59.8621 7.46541 59.9746 7.39099 60.098 7.34063C60.2215 7.29026 60.3537 7.26497 60.4869 7.26617H61.1526V6.21863C61.1526 5.56302 61.6865 5.03106 62.3468 5.03106C63.0063 5.03106 63.5391 5.56302 63.5391 6.21863V7.26617H64.8913C65.0246 7.26497 65.1567 7.29026 65.2802 7.34063C65.4038 7.39099 65.5161 7.46541 65.611 7.55961C65.7058 7.65382 65.7812 7.76597 65.8328 7.88961C65.8846 8.01323 65.9115 8.14593 65.9121 8.28005C65.9118 8.41441 65.8853 8.5474 65.8337 8.67134C65.7821 8.79529 65.7068 8.90775 65.6119 9.00225C65.5171 9.09674 65.4045 9.1714 65.2808 9.22194C65.1571 9.27246 65.0249 9.29786 64.8913 9.29667H63.54V12.8739C63.54 13.4204 63.7757 13.6869 64.3087 13.6869C64.3874 13.6869 64.5454 13.6696 64.5915 13.6696C65.1271 13.6696 65.5805 14.1079 65.5805 14.6553C65.5805 15.0763 65.2997 15.4209 64.9691 15.5455C64.5301 15.7173 64.1199 15.7783 63.6033 15.7783C62.1426 15.7783 61.1526 15.2027 61.1526 13.264V9.29667ZM69.0835 18.1861C70.5125 18.1861 71.2188 17.5451 71.9261 15.842L74.8618 8.82746C74.9107 8.71834 74.972 8.45282 74.972 8.26551C74.972 7.63989 74.4545 7.17159 73.8429 7.17159C73.2287 7.17159 72.8855 7.57805 72.6957 8.07727L70.9361 12.9367L69.116 8.06273C68.91 7.49894 68.5659 7.17159 67.9689 7.17159C67.3094 7.17159 66.7901 7.63989 66.7901 8.31097C66.7901 8.46737 66.8532 8.70289 66.9165 8.85838L69.7908 15.4819L69.7122 15.6692C69.4927 16.092 69.2876 16.1711 68.864 16.1711C68.6905 16.1711 68.5659 16.1384 68.3617 16.0765C68.2359 16.032 68.1031 16.0107 67.9698 16.0138C67.482 16.0138 67.0268 16.4048 67.0268 16.9822C67.0268 17.5606 67.435 17.8416 67.7809 17.966C68.1739 18.1071 68.5506 18.1861 69.0835 18.1861ZM54.7177 9.29667H53.9995C53.4341 9.29667 52.9788 8.84201 52.9788 8.28005C52.9794 8.14593 53.0063 8.01323 53.0579 7.88961C53.1096 7.76597 53.1851 7.65382 53.2799 7.55961C53.3748 7.46541 53.4871 7.39099 53.6107 7.34063C53.7341 7.29026 53.8663 7.26497 53.9995 7.26617H54.7177V6.21863C54.7177 5.56302 55.2523 5.03106 55.9118 5.03106C56.5712 5.03106 57.1051 5.56302 57.1051 6.21863V7.26617H58.1574C58.7229 7.26617 59.1781 7.7181 59.1781 8.28005C59.1781 8.84292 58.7229 9.29667 58.1574 9.29667H57.1059V12.8739C57.1059 13.4204 57.3425 13.6869 57.8755 13.6869C57.9551 13.6869 58.1122 13.6696 58.1583 13.6696C58.693 13.6696 59.1491 14.1079 59.1491 14.6553C59.1491 15.0763 58.8665 15.4209 58.5349 15.5455C58.0968 15.7173 57.6876 15.7783 57.1692 15.7783C55.7094 15.7783 54.7186 15.2027 54.7186 13.264L54.7177 9.29667ZM49.8886 8.35916C49.3233 7.68626 48.5383 7.10885 47.2664 7.10885C45.272 7.10885 43.4347 8.64013 43.4347 11.4363V11.4672C43.4347 14.2652 45.3045 15.7955 47.2664 15.7955C48.5075 15.7955 49.3078 15.2181 49.8886 14.4352V14.5462C49.8886 15.2027 50.4234 15.7328 51.0838 15.7328C51.7432 15.7328 52.276 15.2027 52.276 14.5462V8.35916C52.276 7.70263 51.7432 7.17159 51.0838 7.17159C50.4243 7.17159 49.8886 7.70263 49.8886 8.3437V8.35916ZM47.8789 9.1239C48.9936 9.1239 49.9203 10.0469 49.9203 11.4363V11.4672C49.9203 12.8585 48.9936 13.7805 47.8789 13.7805C46.7642 13.7805 45.8221 12.8585 45.8221 11.4672V11.4363C45.8221 10.0296 46.7642 9.1239 47.8789 9.1239ZM88.5466 29.3534H93.8787C94.408 29.3534 94.8452 28.9434 94.8452 28.4277C94.8452 27.9113 94.408 27.4876 93.8787 27.4876H90.4182L94.315 23.3138C94.689 22.92 94.8452 22.6319 94.8452 22.1916V22.1463C94.8452 21.5989 94.3619 21.2197 93.6917 21.2197H88.5006C87.9695 21.2197 87.534 21.6452 87.534 22.1617C87.534 22.6772 87.9695 23.0856 88.5006 23.0856H91.8048L87.9233 27.2594C87.5493 27.6549 87.3931 27.9432 87.3931 28.3814V28.4277C87.3931 28.9743 87.8755 29.3534 88.5466 29.3534ZM80.6004 31.8259C82.0185 31.8259 82.7204 31.2048 83.4213 29.5508L86.3381 22.7382C86.3833 22.6319 86.4464 22.3745 86.4464 22.1926C86.4464 21.5843 85.9315 21.1288 85.3236 21.1288C84.7166 21.1288 84.3725 21.5242 84.1855 22.0098L82.4394 26.7292L80.6311 21.9944C80.4288 21.4488 80.0846 21.1288 79.493 21.1288C78.8381 21.1288 78.3242 21.5843 78.3242 22.2362C78.3242 22.3891 78.3873 22.6155 78.4479 22.7681L81.3022 29.2007L81.2237 29.3825C81.0051 29.7936 80.8028 29.8691 80.3809 29.8691C80.2111 29.8691 80.0846 29.8381 79.8823 29.7782C79.7568 29.7362 79.6251 29.7159 79.493 29.7181C79.0097 29.7181 78.5572 30.0973 78.5572 30.6583C78.5572 31.2193 78.9637 31.4931 79.306 31.6131C79.6944 31.7514 80.0693 31.8259 80.6004 31.8259ZM76.8336 19.3392C76.8336 18.7018 76.3043 18.1861 75.6495 18.1861C74.9937 18.1861 74.4635 18.7018 74.4635 19.3392V22.2827C73.9034 21.6306 73.1231 21.0687 71.8601 21.0687C69.8792 21.0687 68.0556 22.5563 68.0556 25.2716V25.3016C68.0556 28.0186 69.9117 29.5044 71.8601 29.5044C73.0922 29.5044 73.8863 28.9434 74.4635 28.1842V28.2905C74.4635 28.9279 74.9937 29.4454 75.6495 29.4454C76.3043 29.4454 76.8329 28.9279 76.8329 28.2905L76.8336 19.3392ZM72.469 23.0264C73.5746 23.0264 74.496 23.9221 74.496 25.2725V25.3016C74.496 26.6528 73.5746 27.5476 72.469 27.5476C71.3615 27.5476 70.4257 26.6528 70.4257 25.3016V25.2716C70.4257 23.9058 71.3615 23.0264 72.469 23.0264ZM63.9149 28.2915C63.9149 28.9279 64.4442 29.4445 65.0991 29.4445C65.754 29.4445 66.2852 28.9279 66.2852 28.2905V19.3392C66.2852 18.7018 65.754 18.1861 65.0991 18.1861C64.4442 18.1861 63.9158 18.7018 63.9158 19.3392L63.9149 28.2915ZM61.7686 22.2827C61.7686 21.6461 61.2393 21.1288 60.5845 21.1288C59.9295 21.1288 59.4002 21.6452 59.4002 22.2836V25.7572C59.4002 26.8501 58.8231 27.4111 57.9189 27.4111C57.0147 27.4111 56.4835 26.8501 56.4835 25.7563V22.2827C56.4835 21.6461 55.9542 21.1288 55.3003 21.1288C54.6444 21.1288 54.1133 21.6452 54.1133 22.2836V26.4854C54.1133 28.3514 55.1584 29.5044 56.9515 29.5044C58.1528 29.5044 58.8538 28.8833 59.3993 28.1995V28.2905C59.3993 28.9279 59.9295 29.4454 60.5845 29.4454C61.2393 29.4454 61.7686 28.9279 61.7686 28.2905V22.2827ZM44.5466 28.2905C44.5466 28.9279 45.0778 29.4454 45.7318 29.4454C46.3867 29.4454 46.9169 28.9279 46.9169 28.2905V24.8169C46.9169 23.7229 47.4941 23.1619 48.3982 23.1619C49.3024 23.1619 49.8317 23.7229 49.8317 24.8169V28.2905C49.8317 28.9279 50.3629 29.4454 51.0178 29.4454C51.6727 29.4454 52.202 28.9279 52.202 28.2905V24.0876C52.202 22.2217 51.1578 21.0687 49.3639 21.0687C48.1643 21.0687 47.4633 21.6916 46.9169 22.3736V19.3392C46.9169 18.7018 46.3867 18.1861 45.7318 18.1861C45.0778 18.1861 44.5466 18.7018 44.5466 19.3392V28.2905ZM34.4813 29.3534H41.6371C42.2153 29.3534 42.6985 28.8988 42.6985 28.3368C42.6985 27.7758 42.2153 27.3057 41.6371 27.3057H36.6014L42.2604 20.9024C42.5404 20.5676 42.6975 20.2193 42.6975 19.8093V19.7638C42.6975 19.2027 42.2144 18.7326 41.6362 18.7326H34.6683C34.0911 18.7326 33.607 19.2027 33.607 19.7638C33.607 20.3257 34.0911 20.7805 34.6683 20.7805H39.5163L33.8562 27.1838C33.5762 27.502 33.4209 27.8658 33.4209 28.275V28.3223C33.4209 28.8833 33.905 29.3534 34.4813 29.3534Z" fill="#2B5DA8"/>
<mask id="mask0_790_21" style="mask-type:alpha" maskUnits="userSpaceOnUse" x="0" y="0" width="101" height="54">
<path d="M0 0H101V53.3114H0V0Z" fill="white"/>
</mask>
<g mask="url(#mask0_790_21)">
<path fill-rule="evenodd" clip-rule="evenodd" d="M99.5211 19.9932C98.7713 19.9932 98.0425 20.597 98.0425 21.4817C98.0425 22.3646 98.7713 22.9703 99.5211 22.9703C100.275 22.9703 101 22.3646 101 21.4817C101 20.597 100.275 19.9932 99.5211 19.9932ZM99.5211 20.2633C100.128 20.2633 100.71 20.7551 100.71 21.4817C100.71 22.2064 100.128 22.6985 99.5211 22.6985C99.3639 22.6973 99.2085 22.6648 99.0638 22.6028C98.9191 22.5411 98.7881 22.4509 98.678 22.3378C98.5681 22.2248 98.4813 22.0909 98.4229 21.944C98.3645 21.797 98.3357 21.6401 98.3379 21.4817C98.3379 20.7551 98.9141 20.2633 99.5211 20.2633ZM99.5129 20.6633H98.9737V22.2656H99.1716V21.66H99.4742L99.9213 22.2656H100.145L99.6865 21.6526C99.9582 21.5936 100.116 21.4054 100.116 21.1681C100.116 20.8761 99.8833 20.6633 99.5129 20.6633ZM99.5211 20.8516C99.7659 20.8516 99.9086 20.9725 99.9086 21.1681C99.9086 21.3681 99.7659 21.4773 99.5201 21.4773H99.1716V20.8516H99.5211Z" fill="white"/>
<path fill-rule="evenodd" clip-rule="evenodd" d="M9.75523 19.5414L2.37358 20.9571C2.0475 21.0189 1.69613 21.119 1.36371 21.0818C1.21188 21.064 1.0634 21.0241 0.922911 20.9636C0.739101 20.8862 0.572454 20.7726 0.432703 20.6297C0.292953 20.4867 0.182902 20.3172 0.108981 20.1309C0.0350599 19.9447 -0.00124936 19.7456 0.00217459 19.5449C0.00559854 19.3444 0.048687 19.1465 0.128923 18.9631C0.281578 18.6148 0.695283 18.1992 0.947299 17.9019L5.57574 12.4659L1.73948 5.60425C1.68757 5.51459 1.64024 5.42232 1.59767 5.32782C1.51322 5.13675 1.46958 4.92997 1.46958 4.72084C1.46958 4.51173 1.51322 4.30493 1.59767 4.11388C1.73977 3.79721 1.98318 3.53762 2.28905 3.37658C2.59491 3.21554 2.94558 3.16233 3.285 3.22547C3.51082 3.2664 3.83601 3.41824 4.08622 3.51827L11.074 6.32897L16.5597 0.512068C16.5885 0.481152 16.6194 0.453872 16.65 0.423865C16.8707 0.215336 17.1471 0.0762059 17.4453 0.0235471C17.7434 -0.0291118 18.0503 0.00699186 18.3283 0.127428C18.9154 0.380217 19.2595 0.952178 19.2497 1.54596C19.2488 1.58961 19.2488 1.63052 19.246 1.67326L18.668 9.60978L25.5022 12.7697C25.7479 12.8815 26.0812 13.017 26.2647 13.1534C26.4878 13.3163 26.6621 13.5381 26.7682 13.7943C26.8743 14.0505 26.9081 14.3313 26.8657 14.6056C26.8234 14.8799 26.7067 15.1371 26.5285 15.3489C26.3502 15.5607 26.1172 15.7188 25.8554 15.8058C25.7533 15.8422 25.6593 15.865 25.5546 15.8914L17.874 17.7719C21.1348 35.4435 36.7671 48.8395 55.5618 48.8395C67.057 48.8395 77.3698 43.8274 84.392 35.8909C84.6087 35.6398 84.9285 35.4816 85.2871 35.4816C86.2518 35.4816 86.7729 36.5183 86.2473 37.3103C86.0893 37.5476 85.8751 37.8195 85.634 38.1014C84.5319 39.3909 83.1643 40.7393 81.9071 41.887C74.1324 48.9778 63.7509 53.3107 52.3479 53.3107C31.518 53.3107 14.1 38.8653 9.75523 19.5414Z" fill="#FECC00"/>
</g>
</svg>
