<svg width="141" height="75" viewBox="0 0 141 75" fill="none" xmlns="http://www.w3.org/2000/svg">
<g clip-path="url(#clip0_790_338)">
<path fill-rule="evenodd" clip-rule="evenodd" d="M52.9724 22.0148C56.2759 22.0148 58.5973 20.3166 58.5973 17.2877V17.2459C58.5973 14.5896 56.8448 13.4794 53.7379 12.6746C51.0903 11.9991 50.4332 11.6709 50.4332 10.6722V10.6266C50.4332 9.8865 51.113 9.29718 52.402 9.29718C53.4533 9.29718 54.5044 9.6685 55.6198 10.3212C55.8817 10.4733 56.1449 10.562 56.4735 10.562C57.3484 10.562 58.0484 9.88649 58.0484 9.01582C58.0484 8.36188 57.6782 7.90564 57.3056 7.68638C55.927 6.81701 54.3081 6.33667 52.446 6.33667C49.3178 6.33667 47.0844 8.16672 47.0844 10.932V10.9751C47.0844 14.0028 49.0759 14.8506 52.163 15.6351C54.7236 16.2878 55.2485 16.7238 55.2485 17.5716V17.6172C55.2485 18.5082 54.4151 19.0519 53.0365 19.0519C51.5486 19.0519 50.2796 18.5322 49.1202 17.6806C48.8388 17.4799 48.5017 17.3735 48.1571 17.3764C47.2807 17.3764 46.5809 18.0519 46.5809 18.9226C46.5809 19.4447 46.8439 19.9238 47.2154 20.1848C48.9003 21.379 50.9117 22.0185 52.9724 22.0148ZM85.2298 12.9572H84.3007C84.1151 12.9584 83.9307 12.9227 83.7587 12.852C83.5868 12.7814 83.4302 12.6773 83.2981 12.5457C83.1661 12.4141 83.0612 12.2575 82.9892 12.085C82.9174 11.9125 82.8803 11.7274 82.8794 11.5404C82.8803 11.3534 82.9179 11.1685 82.9899 10.9962C83.0618 10.8239 83.167 10.6676 83.2992 10.5363C83.4312 10.405 83.588 10.3012 83.76 10.2311C83.9322 10.1609 84.1164 10.1256 84.302 10.1273H85.2298V8.66732C85.2298 7.75357 85.9739 7.01217 86.8943 7.01217C87.8133 7.01217 88.5559 7.75357 88.5559 8.66732V10.1273H90.4406C90.6263 10.1256 90.8104 10.1609 90.9826 10.2311C91.1548 10.3012 91.3114 10.405 91.4437 10.5363C91.5757 10.6676 91.6808 10.8239 91.7528 10.9962C91.825 11.1685 91.8624 11.3534 91.8632 11.5404C91.8628 11.7276 91.8259 11.913 91.7541 12.0857C91.6821 12.2585 91.5772 12.4152 91.4449 12.5469C91.3127 12.6786 91.1559 12.7827 90.9835 12.8531C90.8111 12.9235 90.6267 12.9589 90.4406 12.9572H88.5572V17.9429C88.5572 18.7046 88.8858 19.0759 89.6286 19.0759C89.7382 19.0759 89.9585 19.0519 90.0228 19.0519C90.7692 19.0519 91.4011 19.6627 91.4011 20.4256C91.4011 21.0124 91.0098 21.4927 90.5489 21.6664C89.9371 21.9059 89.3654 21.9909 88.6455 21.9909C86.6097 21.9909 85.2298 21.1886 85.2298 18.4866V12.9572ZM96.2834 25.3467C98.2749 25.3467 99.2593 24.4533 100.245 22.0796L104.337 12.3033C104.405 12.1512 104.49 11.7812 104.49 11.5201C104.49 10.6482 103.769 9.99547 102.917 9.99547C102.061 9.99547 101.582 10.562 101.318 11.2577L98.8654 18.0304L96.3287 11.2375C96.0415 10.4517 95.5619 9.99547 94.7298 9.99547C93.8107 9.99547 93.0869 10.6482 93.0869 11.5835C93.0869 11.8014 93.175 12.1297 93.2632 12.3464L97.2691 21.5777L97.1595 21.8388C96.8536 22.428 96.5677 22.5382 95.9774 22.5382C95.7356 22.5382 95.5619 22.4927 95.2774 22.4064C95.102 22.3445 94.917 22.3148 94.7311 22.319C94.0513 22.319 93.4168 22.864 93.4168 23.6688C93.4168 24.4748 93.9857 24.8664 94.4679 25.0399C95.0157 25.2365 95.5406 25.3467 96.2834 25.3467ZM76.2614 12.9572H75.2605C74.4724 12.9572 73.8379 12.3236 73.8379 11.5404C73.8387 11.3534 73.8761 11.1685 73.9481 10.9962C74.0201 10.8239 74.1254 10.6676 74.2575 10.5363C74.3897 10.405 74.5463 10.3012 74.7185 10.2311C74.8905 10.1609 75.0748 10.1256 75.2605 10.1273H76.2614V8.66732C76.2614 7.75357 77.0065 7.01217 77.9256 7.01217C78.8447 7.01217 79.5888 7.75357 79.5888 8.66732V10.1273H81.0554C81.8435 10.1273 82.478 10.7571 82.478 11.5404C82.478 12.3248 81.8435 12.9572 81.0554 12.9572H79.5898V17.9429C79.5898 18.7046 79.9197 19.0759 80.6625 19.0759C80.7734 19.0759 80.9924 19.0519 81.0567 19.0519C81.8018 19.0519 82.4376 19.6627 82.4376 20.4256C82.4376 21.0124 82.0437 21.4927 81.5816 21.6664C80.971 21.9059 80.4006 21.9909 79.6781 21.9909C77.6436 21.9909 76.2627 21.1886 76.2627 18.4866L76.2614 12.9572ZM69.531 11.6506C68.7431 10.7128 67.6491 9.90803 65.8763 9.90803C63.0967 9.90803 60.536 12.0422 60.536 15.9393V15.9824C60.536 19.8819 63.142 22.0148 65.8763 22.0148C67.6061 22.0148 68.7215 21.2101 69.531 20.1189V20.2736C69.531 21.1886 70.2764 21.9274 71.1967 21.9274C72.1158 21.9274 72.8584 21.1886 72.8584 20.2736V11.6506C72.8584 10.7356 72.1158 9.99547 71.1967 9.99547C70.2776 9.99547 69.531 10.7356 69.531 11.6291V11.6506ZM66.73 12.7165C68.2836 12.7165 69.5752 14.0028 69.5752 15.9393V15.9824C69.5752 17.9214 68.2836 19.2065 66.73 19.2065C65.1764 19.2065 63.8634 17.9214 63.8634 15.9824V15.9393C63.8634 13.9787 65.1764 12.7165 66.73 12.7165ZM123.409 40.9108H130.841C131.579 40.9108 132.188 40.3393 132.188 39.6206C132.188 38.9009 131.579 38.3104 130.841 38.3104H126.018L131.449 32.4933C131.97 31.9444 132.188 31.5428 132.188 30.9292V30.866C132.188 30.1031 131.514 29.5746 130.58 29.5746H123.345C122.605 29.5746 121.998 30.1676 121.998 30.8876C121.998 31.606 122.605 32.1752 123.345 32.1752H127.95L122.541 37.9923C122.02 38.5434 121.802 38.9453 121.802 39.5561V39.6206C121.802 40.3824 122.474 40.9108 123.409 40.9108ZM112.335 44.3567C114.311 44.3567 115.289 43.491 116.266 41.1859L120.331 31.6911C120.394 31.5428 120.482 31.1841 120.482 30.9305C120.482 30.0828 119.765 29.4479 118.918 29.4479C118.072 29.4479 117.592 29.9991 117.331 30.6759L114.898 37.2533L112.377 30.6543C112.095 29.8939 111.616 29.4479 110.791 29.4479C109.879 29.4479 109.162 30.0828 109.162 30.9914C109.162 31.2044 109.25 31.5199 109.335 31.7327L113.313 40.698L113.203 40.9513C112.899 41.5243 112.617 41.6294 112.029 41.6294C111.792 41.6294 111.616 41.5863 111.334 41.5027C111.159 41.4442 110.975 41.416 110.791 41.419C110.118 41.419 109.487 41.9475 109.487 42.7294C109.487 43.5113 110.054 43.8929 110.531 44.0602C111.072 44.2529 111.594 44.3567 112.335 44.3567ZM107.085 26.9537C107.085 26.0654 106.347 25.3467 105.434 25.3467C104.521 25.3467 103.782 26.0654 103.782 26.9537V31.0561C103.001 30.1473 101.913 29.3641 100.153 29.3641C97.3924 29.3641 94.8507 31.4375 94.8507 35.2218V35.2637C94.8507 39.0504 97.4377 41.1212 100.153 41.1212C101.87 41.1212 102.977 40.3393 103.782 39.2811V39.4294C103.782 40.3177 104.521 41.0389 105.434 41.0389C106.347 41.0389 107.084 40.3177 107.084 39.4294L107.085 26.9537ZM101.002 32.0927C102.543 32.0927 103.827 33.341 103.827 35.2231V35.2637C103.827 37.1469 102.543 38.3939 101.002 38.3939C99.4582 38.3939 98.154 37.1469 98.154 35.2637V35.2218C98.154 33.3183 99.4582 32.0927 101.002 32.0927ZM89.0798 39.4307C89.0798 40.3177 89.8175 41.0377 90.7301 41.0377C91.643 41.0377 92.3832 40.3177 92.3832 39.4294V26.9537C92.3832 26.0654 91.643 25.3467 90.7301 25.3467C89.8175 25.3467 89.0811 26.0654 89.0811 26.9537L89.0798 39.4307ZM86.0884 31.0561C86.0884 30.1689 85.3507 29.4479 84.4381 29.4479C83.5252 29.4479 82.7875 30.1676 82.7875 31.0574V35.8986C82.7875 37.4219 81.9832 38.2038 80.723 38.2038C79.4627 38.2038 78.7225 37.4219 78.7225 35.8973V31.0561C78.7225 30.1689 77.9848 29.4479 77.0734 29.4479C76.1593 29.4479 75.419 30.1676 75.419 31.0574V36.9136C75.419 39.5142 76.8756 41.1212 79.3747 41.1212C81.049 41.1212 82.0259 40.2555 82.7863 39.3025V39.4294C82.7863 40.3177 83.5252 41.0389 84.4381 41.0389C85.3507 41.0389 86.0884 40.3177 86.0884 39.4294V31.0561ZM62.0857 39.4294C62.0857 40.3177 62.826 41.0389 63.7376 41.0389C64.6502 41.0389 65.3892 40.3177 65.3892 39.4294V34.5882C65.3892 33.0635 66.1938 32.2815 67.4538 32.2815C68.714 32.2815 69.4517 33.0635 69.4517 34.5882V39.4294C69.4517 40.3177 70.192 41.0389 71.1048 41.0389C72.0175 41.0389 72.7552 40.3177 72.7552 39.4294V33.5717C72.7552 30.9711 71.2999 29.3641 68.7997 29.3641C67.1278 29.3641 66.1508 30.2323 65.3892 31.1828V26.9537C65.3892 26.0654 64.6502 25.3467 63.7376 25.3467C62.826 25.3467 62.0857 26.0654 62.0857 26.9537V39.4294ZM48.0575 40.9108H58.0307C58.8365 40.9108 59.5099 40.2771 59.5099 39.4939C59.5099 38.712 58.8365 38.0568 58.0307 38.0568H51.0123L58.8994 29.1323C59.2897 28.6658 59.5087 28.1804 59.5087 27.6089V27.5454C59.5087 26.7635 58.8353 26.1083 58.0294 26.1083H48.3182C47.5136 26.1083 46.8389 26.7635 46.8389 27.5454C46.8389 28.3286 47.5136 28.9625 48.3182 28.9625H55.0748L47.1863 37.8869C46.796 38.3304 46.5796 38.8374 46.5796 39.4078V39.4736C46.5796 40.2555 47.2543 40.9108 48.0575 40.9108Z" fill="#2B5DA8"/>
<mask id="mask0_790_338" style="mask-type:alpha" maskUnits="userSpaceOnUse" x="0" y="0" width="141" height="75">
<path d="M0 0H140.766V74.3012H0V0Z" fill="white"/>
</mask>
<g mask="url(#mask0_790_338)">
<path fill-rule="evenodd" clip-rule="evenodd" d="M138.705 27.8647C137.66 27.8647 136.644 28.7063 136.644 29.9394C136.644 31.1699 137.66 32.014 138.705 32.014C139.756 32.014 140.766 31.1699 140.766 29.9394C140.766 28.7063 139.756 27.8647 138.705 27.8647ZM138.705 28.2412C139.551 28.2412 140.362 28.9267 140.362 29.9394C140.362 30.9494 139.551 31.6352 138.705 31.6352C138.486 31.6335 138.269 31.5882 138.068 31.5019C137.866 31.4158 137.683 31.2902 137.53 31.1325C137.377 30.9751 137.256 30.7884 137.174 30.5837C137.093 30.3788 137.053 30.1601 137.056 29.9394C137.056 28.9267 137.859 28.2412 138.705 28.2412ZM138.693 28.7988H137.942V31.0319H138.218V30.1878H138.639L139.263 31.0319H139.575L138.935 30.1776C139.314 30.0953 139.533 29.833 139.533 29.5023C139.533 29.0953 139.21 28.7988 138.693 28.7988ZM138.705 29.0611C139.046 29.0611 139.245 29.2297 139.245 29.5023C139.245 29.7811 139.046 29.9332 138.703 29.9332H138.218V29.0611H138.705Z" fill="white"/>
<path fill-rule="evenodd" clip-rule="evenodd" d="M13.5963 27.235L3.30832 29.2082C2.85385 29.2943 2.36414 29.4338 1.90084 29.3819C1.68923 29.3571 1.48229 29.3015 1.28649 29.2171C1.03031 29.1093 0.798049 28.951 0.603275 28.7518C0.408503 28.5525 0.255122 28.3162 0.152097 28.0567C0.0490712 27.7971 -0.00153369 27.5196 0.00323834 27.2399C0.00801038 26.9605 0.0680637 26.6847 0.17989 26.429C0.392649 25.9436 0.969238 25.3644 1.32048 24.95L7.77123 17.3738L2.42455 7.81052C2.35222 7.68556 2.28624 7.55696 2.22692 7.42525C2.10921 7.15895 2.04839 6.87076 2.04839 6.57929C2.04839 6.28785 2.10921 5.99963 2.22692 5.73336C2.42496 5.292 2.76421 4.93021 3.1905 4.70576C3.61679 4.48132 4.10553 4.40716 4.57858 4.49516C4.89331 4.5522 5.34654 4.76383 5.69526 4.90325L15.4343 8.82057L23.0799 0.713436C23.12 0.670348 23.163 0.632327 23.2057 0.590505C23.5133 0.299874 23.8985 0.105966 24.314 0.0325739C24.7296 -0.0408179 25.1573 0.00950056 25.5448 0.177354C26.363 0.529672 26.8426 1.32683 26.829 2.15439C26.8277 2.21523 26.8277 2.27225 26.8238 2.33182L26.0182 13.3931L35.5432 17.7971C35.8856 17.953 36.3501 18.1418 36.6058 18.3319C36.9169 18.5589 37.1598 18.868 37.3076 19.2252C37.4554 19.5823 37.5027 19.9736 37.4435 20.3559C37.3845 20.7382 37.2219 21.0967 36.9735 21.3919C36.725 21.6871 36.4003 21.9074 36.0354 22.0287C35.8931 22.0793 35.7622 22.1112 35.6162 22.1479L24.9116 24.7688C29.4563 49.3981 51.2433 68.0684 77.4379 68.0684C93.4589 68.0684 107.832 61.0829 117.619 50.0217C117.921 49.6718 118.367 49.4513 118.867 49.4513C120.211 49.4513 120.937 50.8961 120.205 52C119.985 52.3307 119.686 52.7097 119.35 53.1026C117.814 54.8997 115.908 56.779 114.156 58.3785C103.32 68.2611 88.8512 74.3 72.9586 74.3C43.9276 74.3 19.6517 54.1671 13.5963 27.235Z" fill="#FECC00"/>
</g>
</g>
<defs>
<clipPath id="clip0_790_338">
<rect width="141" height="74.7727" fill="white"/>
</clipPath>
</defs>
</svg>
