<svg width="92" height="41" viewBox="0 0 92 41" fill="none" xmlns="http://www.w3.org/2000/svg">
<path d="M17.8571 0.727272V40H9.5538V8.60866H9.32369L0.330078 14.2464V6.88281L10.0524 0.727272H17.8571ZM41.8416 40.5369C38.8885 40.5369 36.2614 40.0575 33.9602 39.0987C31.6719 38.1271 29.8757 36.804 28.5717 35.1293C27.2678 33.4545 26.6158 31.5561 26.6158 29.4339C26.6158 27.7976 26.9865 26.2955 27.728 24.9276C28.4822 23.5469 29.505 22.4027 30.7962 21.495C32.0874 20.5746 33.532 19.9865 35.13 19.7308V19.4624C33.0334 19.0405 31.3331 18.0241 30.0291 16.4134C28.7251 14.7898 28.0732 12.9041 28.0732 10.7564C28.0732 8.72372 28.6676 6.91477 29.8565 5.32954C31.0455 3.73153 32.6754 2.47869 34.7464 1.57102C36.8303 0.650567 39.1953 0.190339 41.8416 0.190339C44.4879 0.190339 46.8466 0.650567 48.9176 1.57102C51.0014 2.49148 52.6378 3.75071 53.8267 5.34872C55.0156 6.93395 55.6165 8.73651 55.6293 10.7564C55.6165 12.9169 54.9517 14.8026 53.6349 16.4134C52.3182 18.0241 50.6307 19.0405 48.5724 19.4624V19.7308C50.1449 19.9865 51.5703 20.5746 52.8487 21.495C54.1399 22.4027 55.1626 23.5469 55.9169 24.9276C56.684 26.2955 57.0739 27.7976 57.0866 29.4339C57.0739 31.5561 56.4155 33.4545 55.1115 35.1293C53.8075 36.804 52.005 38.1271 49.7038 39.0987C47.4155 40.0575 44.7947 40.5369 41.8416 40.5369ZM41.8416 34.4389C43.1584 34.4389 44.3089 34.2024 45.2933 33.7294C46.2777 33.2436 47.0447 32.5788 47.5945 31.7351C48.157 30.8786 48.4382 29.8942 48.4382 28.782C48.4382 27.6442 48.1506 26.6406 47.5753 25.7713C47 24.8892 46.2202 24.1989 45.2358 23.7003C44.2514 23.1889 43.12 22.9332 41.8416 22.9332C40.576 22.9332 39.4446 23.1889 38.4474 23.7003C37.4503 24.1989 36.6641 24.8892 36.0888 25.7713C35.5263 26.6406 35.245 27.6442 35.245 28.782C35.245 29.8942 35.5199 30.8786 36.0696 31.7351C36.6193 32.5788 37.3928 33.2436 38.3899 33.7294C39.3871 34.2024 40.5376 34.4389 41.8416 34.4389ZM41.8416 16.8928C42.9411 16.8928 43.919 16.669 44.7756 16.2216C45.6321 15.7741 46.3033 15.1541 46.7891 14.3615C47.2749 13.5689 47.5178 12.6548 47.5178 11.6193C47.5178 10.5966 47.2749 9.7017 46.7891 8.93466C46.3033 8.15483 45.6385 7.54758 44.7947 7.11293C43.951 6.66548 42.9666 6.44176 41.8416 6.44176C40.7294 6.44176 39.745 6.66548 38.8885 7.11293C38.032 7.54758 37.3608 8.15483 36.875 8.93466C36.402 9.7017 36.1655 10.5966 36.1655 11.6193C36.1655 12.6548 36.4084 13.5689 36.8942 14.3615C37.38 15.1541 38.0511 15.7741 38.9077 16.2216C39.7642 16.669 40.7422 16.8928 41.8416 16.8928ZM74.628 34.017V6.86364H81.4931V34.017H74.628ZM64.4838 23.8729V17.0078H91.6373V23.8729H64.4838Z" fill="#575757"/>
</svg>
