<svg width="149" height="91" viewBox="0 0 149 91" fill="none" xmlns="http://www.w3.org/2000/svg">
<g clip-path="url(#clip0_790_49)">
<path d="M123.762 35.4466L142.697 8.2002C142.651 8.28587 142.598 8.38164 142.535 8.46731L134.645 19.8023L134.639 19.8124L130.192 26.2234L123.773 35.4466L119.288 41.9078L119.277 41.9179L111.97 52.4315L97.9128 72.647C97.8339 72.7679 97.7497 72.8788 97.6553 72.9897L119.277 41.8878L123.762 35.4466Z" fill="#45D2FF"/>
<path d="M142.741 8.13949C142.768 8.08908 142.794 8.04372 142.815 7.99333C142.778 8.05381 142.741 8.12436 142.71 8.18484C142.71 8.19492 142.71 8.19492 142.698 8.19996L123.763 35.4464L119.279 41.8824L97.6563 72.9844L95.6587 75.8572L26.833 90.3474L80.9284 12.9577L81.044 12.9325L80.7654 13.3257C80.7654 13.3257 80.7654 13.3357 80.776 13.3357V13.3257L81.0544 12.9325L138.404 1.92514C138.431 1.92514 138.451 1.91506 138.466 1.91506L148.393 0.00488281L142.741 8.13949Z" fill="#45D2FF"/>
<path opacity="0.48" d="M142.735 8.13963C142.761 8.08924 142.787 8.04389 142.807 7.99347C142.772 8.05397 142.735 8.12451 142.703 8.185C142.703 8.19508 142.703 8.19508 142.692 8.20013L123.757 35.4465L119.272 41.8827C118.956 39.1309 118.625 36.3889 118.331 33.622C114.877 34.1311 111.413 34.5846 107.959 35.0735C103.601 35.6936 99.1847 36.0362 94.9317 37.0492C91.7932 37.7951 88.4866 39.2164 88.8283 43.2283C89.0544 45.8239 90.7734 47.6485 93.444 48.2885C97.371 49.236 98.8325 46.6202 99.8997 42.8907C105.299 49.4325 103.906 54.4776 96.8979 56.2366C95.0317 56.6903 92.687 56.2366 92.687 56.2366C92.687 56.2366 92.7868 59.1396 92.75 60.4652C92.6975 66.9214 87.6297 70.2782 81.3474 74.1639C85.9105 63.8822 83.4923 54.407 82.8878 44.9418C82.3883 37.397 85.9158 33.5262 94.6689 32.0747C100.694 31.0667 106.834 30.6231 112.843 29.6C118.158 28.6878 121.869 25.7495 122.957 20.3969C124.213 14.2582 117.837 8.14973 111.481 9.40469C108.837 9.92885 106.56 11.2695 106.839 14.1171C107.155 17.4536 110.261 18.8548 112.937 17.9677C114.488 17.4435 115.508 16.728 115.508 16.728C115.508 16.728 116.144 18.6986 115.892 19.9837C115.041 24.2729 112.674 27.201 108.027 28.0982C103.301 29.0356 100.11 26.4652 99.0061 22.3222C98.5223 20.518 98.4435 17.5595 98.4435 17.5595C98.4435 17.5595 94.1485 18.3054 92.4293 18.3002C87.0514 18.3002 83.2294 16.7027 80.7744 13.3309V13.3208L81.053 12.9276L138.402 1.92024C138.428 1.92024 138.45 1.91018 138.466 1.91018L148.39 0L142.735 8.13963Z" fill="#45A3FF"/>
<path d="M11.7181 35.9253L9.43648 37.8606C8.49547 36.7015 7.62278 36.1168 6.81319 36.1168C6.41365 36.1168 6.0772 36.2327 5.81435 36.4595C5.55148 36.6862 5.4148 36.9635 5.4148 37.2811C5.4148 37.5783 5.53572 37.911 5.77755 38.2739C6.01937 38.6368 6.75536 39.4382 7.98026 40.6779C8.63214 41.3382 9.05795 41.807 9.26299 42.084C9.75715 42.7243 10.1094 43.3189 10.3249 43.8732C10.5405 44.4278 10.6509 44.9923 10.6509 45.5669C10.6509 46.8519 10.1725 47.9306 9.22094 48.7973C8.26939 49.6694 7.0445 50.1029 5.55148 50.1029C3.28042 50.1029 1.42993 49.0696 0 46.9982L2.40774 45.1384C3.37505 46.5547 4.42647 47.2602 5.55148 47.2602C6.08771 47.2602 6.53982 47.0939 6.90782 46.7613C7.27581 46.4286 7.45981 46.0255 7.45981 45.5517C7.45981 45.1838 7.34941 44.8057 7.12335 44.4177C6.8973 44.0346 6.26119 43.3088 5.20978 42.2405C4.09526 41.1165 3.36454 40.2647 3.01757 39.6953C2.54969 38.919 2.31312 38.158 2.31312 37.407C2.31312 36.4191 2.64958 35.537 3.32247 34.7509C4.16888 33.7732 5.31491 33.2793 6.75011 33.2793C8.73202 33.2893 10.388 34.1662 11.7181 35.9253Z" fill="#4570FF"/>
<path d="M15.1454 54.0388H12.1226L14.4252 37.8602H17.406L17.2271 39.1455C17.8791 38.5457 18.4888 38.1324 19.0566 37.9006C19.6244 37.6687 20.2606 37.5527 20.9649 37.5527C22.5946 37.5527 23.8826 38.1273 24.8342 39.2816C25.7857 40.4357 26.264 41.7764 26.264 43.2985C26.264 44.4677 25.9592 45.5816 25.3441 46.64C24.7343 47.6984 23.9088 48.5249 22.8786 49.1147C21.8481 49.7043 20.7705 50.0017 19.6561 50.0017C18.8989 50.0017 18.1997 49.8354 17.5583 49.5027C16.917 49.17 16.3913 48.6862 15.9812 48.0461L15.1454 54.0388ZM20.2289 40.1333C19.5035 40.1333 18.8621 40.2945 18.3102 40.6171C17.7581 40.9396 17.2956 41.4437 16.9276 42.1291C16.5542 42.8146 16.3703 43.5101 16.3703 44.2207C16.3703 45.1532 16.6489 45.904 17.2062 46.4736C17.7633 47.0431 18.4993 47.3255 19.4141 47.3255C20.4813 47.3255 21.3802 46.9424 22.1269 46.1812C22.8733 45.4203 23.2413 44.4375 23.2413 43.2329C23.2413 42.3055 22.9574 41.5545 22.395 40.9851C21.8377 40.4206 21.1121 40.1333 20.2289 40.1333Z" fill="#4570FF"/>
<path d="M35.2851 37.5581C36.3839 37.5581 37.3827 37.8 38.2764 38.2889C39.1754 38.7777 39.8693 39.4632 40.374 40.3554C40.8735 41.2473 41.1256 42.2504 41.1256 43.3592C41.1256 45.2038 40.4422 46.7712 39.0702 48.0666C37.6981 49.3619 36.0053 50.012 33.9813 50.012C32.2256 50.012 30.8271 49.5029 29.7809 48.4847C28.7348 47.4668 28.2144 46.1312 28.2144 44.483C28.2144 42.4923 28.924 40.8441 30.3382 39.5287C31.7524 38.2132 33.403 37.5581 35.2851 37.5581ZM35.0748 40.3099C33.8341 40.3099 32.8878 40.7384 32.2256 41.59C31.5631 42.4418 31.2319 43.3642 31.2319 44.3621C31.2319 45.2491 31.5 45.9598 32.0415 46.499C32.5831 47.0383 33.3032 47.3106 34.202 47.3106C35.4796 47.3106 36.4521 46.8972 37.1199 46.0757C37.7875 45.2491 38.1239 44.3117 38.1239 43.2483C38.1239 42.3764 37.8401 41.6708 37.2723 41.1264C36.7098 40.5821 35.9738 40.3099 35.0748 40.3099Z" fill="#4570FF"/>
<path d="M43.8644 37.8605H46.5666L46.3509 39.4733C47.1606 38.1982 48.1331 37.5581 49.2687 37.5581C49.542 37.5581 49.8261 37.6286 50.1203 37.7647L49.0111 40.4057C48.7798 40.325 48.6116 40.2847 48.5064 40.2847C47.9176 40.2847 47.3867 40.6123 46.924 41.2676C46.4615 41.9227 46.0935 43.2533 45.8252 45.2491L45.226 49.6996H42.1821L43.8644 37.8605Z" fill="#4570FF"/>
<path d="M52.5661 33.4604H55.5784L54.9527 37.8605H56.8716L56.5089 40.3653H54.6006L53.2758 49.7046H50.2529L51.5829 40.3653H50.0952L50.4473 37.8605H51.9405L52.5661 33.4604Z" fill="#4570FF"/>
<path d="M79.3435 47.3057L82.277 50.4909H78.3027L76.9726 49.0546C75.4901 49.7804 73.8761 50.1383 72.1255 50.1383C69.7441 50.1383 67.8411 49.4629 66.4215 48.1121C65.0021 46.7615 64.2925 44.9824 64.2925 42.7797C64.2925 41.0461 64.7235 39.4484 65.5911 37.9918C66.4584 36.5352 67.6307 35.391 69.1133 34.5645C70.5957 33.7379 72.2255 33.3247 74.0129 33.3247C76.3523 33.3247 78.271 34.0303 79.7641 35.4466C81.2571 36.8629 82.0036 38.6571 82.0036 40.8343C82.0036 42.0087 81.7671 43.1729 81.294 44.3221C80.8209 45.4762 80.1689 46.4691 79.3435 47.3057ZM77.3039 45.0881C78.3341 43.9188 78.8493 42.5529 78.8493 40.9855C78.8493 39.5189 78.4024 38.3496 77.5035 37.4726C76.6046 36.5957 75.4165 36.1622 73.9341 36.1622C72.7617 36.1622 71.684 36.4393 70.6957 36.9989C69.7125 37.5584 68.9188 38.3597 68.3089 39.398C67.7044 40.4411 67.3994 41.5098 67.3994 42.6134C67.3994 43.934 67.82 45.0478 68.6664 45.96C69.5128 46.8722 70.7114 47.3259 72.2728 47.3259C73.2348 47.3259 74.1127 47.1596 74.9066 46.8269L72.4093 44.1355H76.4311L77.3039 45.0881Z" fill="white"/>
<path d="M90.6109 37.5884C91.7096 37.5884 92.7084 37.8302 93.6021 38.3192C94.5012 38.8081 95.1951 39.4936 95.6997 40.3855C96.1992 41.2777 96.4516 42.2806 96.4516 43.3894C96.4516 45.234 95.7682 46.8015 94.3959 48.0967C93.0238 49.3921 91.3311 50.0422 89.3071 50.0422C87.5512 50.0422 86.1529 49.5333 85.1068 48.5151C84.0606 47.497 83.54 46.1614 83.54 44.5134C83.54 42.5225 84.2497 40.8744 85.6639 39.5591C87.0781 38.2436 88.7288 37.5884 90.6109 37.5884ZM90.4005 40.3453C89.16 40.3453 88.2084 40.7738 87.5512 41.6253C86.8889 42.4772 86.5576 43.3995 86.5576 44.3974C86.5576 45.2844 86.8257 45.9951 87.3673 46.5344C87.9088 47.0736 88.629 47.3459 89.528 47.3459C90.8054 47.3459 91.778 46.9325 92.4455 46.111C93.1132 45.2844 93.4498 44.347 93.4498 43.2837C93.4498 42.4117 93.1658 41.7061 92.598 41.1618C92.0356 40.6174 91.2996 40.3453 90.4005 40.3453Z" fill="white"/>
<path d="M99.1915 37.8957H101.894L101.678 39.5086C102.488 38.2333 103.46 37.5933 104.596 37.5933C104.869 37.5933 105.153 37.6639 105.447 37.7999L104.338 40.4409C104.107 40.3604 103.939 40.3199 103.833 40.3199C103.245 40.3199 102.714 40.6476 102.251 41.3027C101.789 41.9581 101.421 43.2885 101.152 45.2845L100.553 49.7347H97.5093L99.1915 37.8957Z" fill="white"/>
<path d="M105.582 37.896H108.563L110.966 44.9216L115.193 37.896H118.462L108.758 54.0744H105.556L109.063 48.1271L105.582 37.896Z" fill="white"/>
</g>
<defs>
<clipPath id="clip0_790_49">
<rect width="148.392" height="90.876" fill="white"/>
</clipPath>
</defs>
</svg>
