<svg width="299" height="79" viewBox="0 0 299 79" fill="none" xmlns="http://www.w3.org/2000/svg">
<path fill-rule="evenodd" clip-rule="evenodd" d="M49.4078 0.650391L21.1748 28.7481L28.233 35.7725L56.466 7.67612L49.4078 0.650391ZM35.2913 42.7982L42.3495 49.8226L70.5825 21.725L63.5243 14.7019L35.2913 42.7982ZM42.3495 63.8701L7.05957 28.7494L0 35.7725L35.2913 70.8959L42.3495 77.9203L49.4078 70.8959L84.699 35.7725L77.6408 28.7494L42.3495 63.8701ZM110.223 17.2496H106.809V14.9863H116.102V17.2509H112.689V26.1463H110.223V17.2496ZM117.814 14.9863H120.283V19.4024H124.831V14.9863H127.299V26.1463H124.831V21.667H120.283V26.1463H117.814V14.9863ZM130.091 14.9863H138.551V17.1693H132.543V19.434H137.83V21.6196H132.543V23.9633H138.631V26.1463H130.091V14.9863ZM145.628 14.9863H154.087V17.1693H148.079V19.434H153.366V21.6196H148.079V23.9633H154.168V26.1463H145.628V14.9863Z" fill="#003760"/>
<path fill-rule="evenodd" clip-rule="evenodd" d="M156.27 21.3643V14.9863H158.737V21.3011C158.737 23.1181 159.65 24.0595 161.156 24.0595C162.661 24.0595 163.575 23.151 163.575 21.3801V14.9863H166.042V21.2853C166.042 24.6651 164.136 26.3228 161.124 26.3228C158.111 26.3228 156.27 24.648 156.27 21.3643ZM173.675 20.407C174.877 20.407 175.566 19.7698 175.566 18.8284V18.7968C175.566 17.7447 174.828 17.2036 173.626 17.2036H171.176V20.407H173.675ZM168.709 14.9876H173.835C175.26 14.9876 176.366 15.3853 177.103 16.1187C177.728 16.7401 178.064 17.617 178.064 18.669V18.702C178.064 20.5032 177.087 21.6355 175.661 22.1608L178.4 26.1477H175.516L173.114 22.5756H171.176V26.1477H168.709V14.9876ZM189.006 20.5993V20.5664C189.006 18.6532 187.597 17.0601 185.61 17.0601C183.624 17.0601 182.246 18.6216 182.246 20.5348V20.5664C182.246 22.4808 183.656 24.0753 185.643 24.0753C187.629 24.0753 189.006 22.5124 189.006 20.5993ZM179.666 20.5993V20.5664C179.666 17.3932 182.182 14.7954 185.643 14.7954C189.102 14.7954 191.586 17.3629 191.586 20.5348V20.5664C191.586 23.7395 189.071 26.3386 185.61 26.3386C182.15 26.3386 179.667 23.7711 179.667 20.598M198.205 20.6151C199.438 20.6151 200.159 19.8817 200.159 18.9245V18.8942C200.159 17.7921 199.389 17.2036 198.156 17.2036H196.251V20.6151H198.205ZM193.782 14.9876H198.364C201.04 14.9876 202.658 16.565 202.658 18.8455V18.8771C202.658 21.4604 200.64 22.7994 198.125 22.7994H196.25V26.1477H193.782V14.9876ZM204.474 14.9876H212.932V17.1707H206.925V19.4353H212.212V21.6197H206.925V23.9634H213.014V26.1477H204.474V14.9876ZM221.805 21.4762L220.317 17.8567L218.826 21.4762H221.805ZM219.211 14.906H221.486L226.291 26.1477H223.711L222.686 23.6447H217.944L216.919 26.1464H214.405L219.211 14.9073V14.906ZM227.933 14.9876H230.209L235.464 21.8593V14.9863H237.898V26.1477H235.8L230.369 19.0522V26.1477H227.935L227.933 14.9876ZM107.611 32.5533H110.078V41.4816H115.669V43.7134H107.611V32.5533ZM126.189 38.1662V38.1333C126.189 36.2202 124.78 34.627 122.792 34.627C120.805 34.627 119.428 36.1886 119.428 38.1017V38.1333C119.428 40.0478 120.838 41.6409 122.824 41.6409C124.811 41.6409 126.189 40.0807 126.189 38.1662ZM116.848 38.1649V38.1333C116.848 34.9602 119.364 32.3624 122.824 32.3624C126.285 32.3624 128.767 34.9299 128.767 38.1017V38.1333C128.767 41.3065 126.253 43.9056 122.792 43.9056C119.333 43.9056 116.848 41.3381 116.848 38.1649ZM133.359 34.818H129.946V32.5533H139.239V34.818H135.827V43.7147H133.359V34.818ZM144.133 34.818H140.719V32.5533H150.012V34.818H146.599V43.7147H144.133V34.818ZM151.885 32.5533H160.345V34.7376H154.337V37.0023H159.624V39.1867H154.337V41.5303H160.425V43.7134H151.885V32.5533ZM167.916 37.974C169.119 37.974 169.808 37.3367 169.808 36.3953V36.3637C169.808 35.3104 169.07 34.7706 167.869 34.7706H165.417V37.974H167.916ZM162.951 32.5533H168.078C169.503 32.5533 170.607 32.9522 171.345 33.6856C171.97 34.3071 172.306 35.184 172.306 36.236V36.2676C172.306 38.0701 171.33 39.2025 169.903 39.7278L172.642 43.7134H169.758L167.357 40.1426H165.417V43.7134H162.951V32.5533Z" fill="#003760"/>
<mask id="mask0_790_171" style="mask-type:luminance" maskUnits="userSpaceOnUse" x="0" y="0" width="299" height="78">
<path d="M0 77.9218H298.84V0.651855H0V77.9218Z" fill="white"/>
</mask>
<g mask="url(#mask0_790_171)">
<path fill-rule="evenodd" clip-rule="evenodd" d="M174.817 43.7134H177.283V32.5534H174.817V43.7134ZM180.26 32.5534H188.719V34.7377H182.713V37.0024H187.998V39.1867H182.711V41.5304H188.8V43.7134H180.261L180.26 32.5534ZM190.447 42.0887L191.902 40.3507C192.913 41.1802 193.97 41.7055 195.252 41.7055C196.262 41.7055 196.87 41.3066 196.87 40.6522V40.6206C196.87 39.9991 196.486 39.6805 194.612 39.2025C192.352 38.6285 190.894 38.007 190.894 35.7897V35.7581C190.894 33.7331 192.529 32.394 194.819 32.394C196.453 32.394 197.848 32.9049 198.986 33.8134L197.702 35.662C196.71 34.9773 195.734 34.5626 194.788 34.5626C193.843 34.5626 193.346 34.9931 193.346 35.5356V35.5672C193.346 36.3006 193.826 36.5402 195.765 37.034C198.04 37.6238 199.322 38.4362 199.322 40.3823V40.4139C199.322 42.6298 197.624 43.8727 195.203 43.8727C193.451 43.8795 191.759 43.2444 190.447 42.0887Z" fill="#003760"/>
</g>
<mask id="mask1_790_171" style="mask-type:luminance" maskUnits="userSpaceOnUse" x="0" y="0" width="299" height="78">
<path d="M0 77.9218H298.84V0.651855H0V77.9218Z" fill="white"/>
</mask>
<g mask="url(#mask1_790_171)">
<path fill-rule="evenodd" clip-rule="evenodd" d="M106.923 55.4965H113.003V56.3761H107.878V59.3833H112.46V60.2497H107.878V63.9193H106.923V55.4965ZM121.89 59.7323V59.7086C121.89 57.7954 120.488 56.2312 118.553 56.2312C116.619 56.2312 115.241 57.7717 115.241 59.6849V59.7086C115.241 61.6217 116.643 63.1859 118.577 63.1859C120.511 63.1859 121.89 61.6454 121.89 59.7323ZM114.248 59.7323V59.7086C114.248 57.386 116.003 55.353 118.577 55.353C121.153 55.353 122.882 57.3623 122.882 59.6849V59.7086C122.882 62.0298 121.128 64.0641 118.553 64.0641C115.978 64.0641 114.248 62.0549 114.248 59.7323ZM128.508 59.7928C129.778 59.7928 130.684 59.1424 130.684 58.0601V58.0364C130.684 57.0015 129.886 56.3748 128.521 56.3748H125.908V59.7928H128.508ZM124.954 55.4965H128.592C129.634 55.4965 130.467 55.8099 131 56.3392C131.41 56.7474 131.651 57.3386 131.651 57.9995V58.0232C131.651 59.4189 130.685 60.2379 129.354 60.4788L131.954 63.9193H130.782L128.326 60.646H125.908V63.9193H124.954V55.4965ZM139.563 56.3748H136.721V55.4965H143.372V56.3748H140.529V63.9193H139.563V56.3748ZM145.055 55.4965H146.009V59.2385H150.893V55.4965H151.848V63.9193H150.893V60.1299H146.009V63.9193H145.053L145.055 55.4965ZM154.342 55.4965H160.46V56.3629H155.297V59.2385H159.915V60.1049H155.297V63.0542H160.521V63.9193H154.342V55.4965ZM169.858 63.0661C171.14 63.0661 171.938 62.4999 171.938 61.5611V61.5361C171.938 60.6223 171.164 60.093 169.689 60.093H167.017V63.0647L169.858 63.0661ZM169.52 59.2517C170.668 59.2517 171.466 58.7342 171.466 57.7467V57.723C171.466 56.8935 170.8 56.3511 169.592 56.3511H167.017V59.2517H169.52ZM166.073 55.4965H169.677C170.643 55.4965 171.405 55.773 171.889 56.2431C172.24 56.6039 172.432 57.0489 172.432 57.5914V57.6151C172.432 58.7092 171.756 59.2741 171.091 59.5637C172.094 59.8652 172.904 60.4419 172.904 61.5967V61.6217C172.904 63.0647 171.684 63.9193 169.835 63.9193H166.073V55.4965ZM174.91 55.4965H181.027V56.3629H175.865V59.2385H180.482V60.1049H175.865V63.0542H181.088V63.9193H174.91V55.4965ZM182.903 55.4965H183.798L189.129 62.2471V55.4965H190.061V63.9193H189.299L183.835 57.0133V63.9193H182.903V55.4965ZM192.556 55.4965H198.674V56.3629H193.511V59.2385H198.128V60.1049H193.511V63.0542H198.734V63.9193H192.556V55.4965ZM200.55 55.4965H206.631V56.3761H201.505V59.3833H206.088V60.2497H201.505V63.9193H200.55V55.4965ZM208.384 63.9193H209.34V55.4979H208.384V63.9193ZM213.884 56.3748H211.042V55.4965H217.693V56.3748H214.851V63.9193H213.884V56.3748ZM230.379 59.7323V59.7086C230.379 57.7954 228.977 56.2312 227.041 56.2312C225.107 56.2312 223.73 57.7717 223.73 59.6849V59.7086C223.73 61.6217 225.132 63.1859 227.067 63.1859C229.001 63.1859 230.379 61.6454 230.379 59.7323ZM222.738 59.7323V59.7086C222.738 57.386 224.491 55.353 227.067 55.353C229.641 55.353 231.37 57.3623 231.37 59.6849V59.7086C231.37 62.0298 229.617 64.0641 227.041 64.0641C224.467 64.0641 222.738 62.0549 222.738 59.7323ZM233.442 55.4965H239.524V56.3761H234.397V59.3833H238.98V60.2497H234.397V63.9193H233.442V55.4965ZM244.448 62.6921L245.041 61.9943C245.923 62.7882 246.77 63.1859 247.942 63.1859C249.08 63.1859 249.828 62.5842 249.828 61.7533V61.7296C249.828 60.9475 249.404 60.5025 247.627 60.1299C245.683 59.7086 244.787 59.0818 244.787 57.698V57.6743C244.787 56.3511 245.96 55.3767 247.568 55.3767C248.801 55.3767 249.685 55.7256 250.542 56.4116L249.986 57.145C249.201 56.5077 248.413 56.2312 247.543 56.2312C246.443 56.2312 245.742 56.833 245.742 57.59V57.6151C245.742 58.409 246.179 58.854 248.039 59.2504C249.926 59.6598 250.796 60.3471 250.796 61.6335V61.6572C250.796 63.1016 249.587 64.0404 247.907 64.0404C246.564 64.0404 245.464 63.5954 244.448 62.6921ZM259.906 59.7323V59.7086C259.906 57.7954 258.504 56.2312 256.57 56.2312C254.635 56.2312 253.257 57.7717 253.257 59.6849V59.7086C253.257 61.6217 254.659 63.1859 256.595 63.1859C258.529 63.1859 259.906 61.6454 259.906 59.7323ZM252.266 59.7323V59.7086C252.266 57.386 254.019 55.353 256.595 55.353C259.169 55.353 260.899 57.3623 260.899 59.6849V59.7086C260.899 62.0298 259.146 64.0641 256.57 64.0641C253.995 64.0641 252.266 62.0549 252.266 59.7323ZM262.517 59.7323V59.7086C262.517 57.3254 264.305 55.353 266.797 55.353C268.331 55.353 269.251 55.8942 270.097 56.6881L269.444 57.386C268.729 56.7118 267.932 56.2312 266.785 56.2312C264.91 56.2312 263.508 57.7467 263.508 59.6849V59.7086C263.508 61.6572 264.922 63.1859 266.783 63.1859C267.945 63.1859 268.707 62.7408 269.517 61.9706L270.145 62.5842C269.263 63.4742 268.296 64.0641 266.76 64.0641C264.317 64.0641 262.517 62.151 262.517 59.7323ZM271.869 63.9193H272.824V55.4979H271.869V63.9193ZM275.338 55.4965H281.455V56.3629H276.293V59.2385H280.91V60.1049H276.293V63.0542H281.516V63.9193H275.338V55.4965ZM285.776 56.3748H282.935V55.4965H289.584V56.3748H286.742V63.9193H285.776V56.3748ZM294.355 60.5868L290.836 55.4979H291.997L294.851 59.7086L297.727 55.4979H298.84L295.321 60.5736V63.9193H294.355V60.5868Z" fill="#005DA0"/>
</g>
</svg>
