<svg width="149" height="89" viewBox="0 0 149 89" fill="none" xmlns="http://www.w3.org/2000/svg">
<g clip-path="url(#clip0_790_129)">
<path d="M124.35 44.3818L113.312 72.5679H114.646L125.015 46.0925L124.35 44.3818Z" fill="#9C8F62"/>
<path d="M131.318 30.7393H129.984L147.666 72.5685H149L131.318 30.7393Z" fill="#9C8F62"/>
<path d="M84.645 30.7393H83.311V62.4879H84.645V30.7393Z" fill="#9C8F62"/>
<path d="M22.8216 52.6635L16.2197 30.7393H14.8857L22.1206 54.7717L22.8216 52.6635Z" fill="#9C8F62"/>
<path d="M48.6904 52.6635L41.4189 30.7393H40.085L48.0522 54.7717L48.6904 52.6635Z" fill="#9C8F62"/>
<path d="M67.2197 30.7393L53.3359 72.5685H54.6699L68.5537 30.7393H67.2197Z" fill="#9C8F62"/>
<path d="M34.9371 48.6558L26.6299 72.5679H27.9639L35.6067 50.5704L34.9371 48.6558Z" fill="#9C8F62"/>
<path d="M99.6847 62.4824L95.416 72.5683H96.75L101.019 62.4824H99.6847Z" fill="#9C8F62"/>
<path d="M122.347 44.382L111.304 72.5733H99.2036L116.885 30.7231H127.981L145.663 72.5733H133.322L122.347 44.382Z" fill="#1D4B92"/>
<path d="M97.6809 62.4826H81.307V30.7393H69.793V72.5685H93.4122L97.6809 62.4826Z" fill="#1D4B92"/>
<path d="M53.2886 30.7393L46.0486 54.7717L38.0761 30.7393H28.0896L20.1171 54.7717L12.8771 30.7393H0.714355L14.5982 72.5685H24.6265L32.9338 48.6564L41.3038 72.5685H51.3321L65.2159 30.7393H53.2886Z" fill="#1D4B92"/>
<path d="M73.4082 12.0947C76.7481 12.0947 79.4555 9.38721 79.4555 6.04735C79.4555 2.70749 76.7481 0 73.4082 0C70.0683 0 67.3608 2.70749 67.3608 6.04735C67.3608 9.38721 70.0683 12.0947 73.4082 12.0947Z" fill="#9C8F62"/>
<path d="M93.9198 14.0613C96.8985 14.0613 99.3132 11.6466 99.3132 8.66786C99.3132 5.68914 96.8985 3.27441 93.9198 3.27441C90.9411 3.27441 88.5264 5.68914 88.5264 8.66786C88.5264 11.6466 90.9411 14.0613 93.9198 14.0613Z" fill="#9C8F62"/>
<path d="M110.069 18.78C112.155 18.78 113.846 17.089 113.846 15.0031C113.846 12.9171 112.155 11.2261 110.069 11.2261C107.983 11.2261 106.292 12.9171 106.292 15.0031C106.292 17.089 107.983 18.78 110.069 18.78Z" fill="#9C8F62"/>
<path d="M36.3131 18.78C38.3991 18.78 40.0901 17.089 40.0901 15.0031C40.0901 12.9171 38.3991 11.2261 36.3131 11.2261C34.2271 11.2261 32.5361 12.9171 32.5361 15.0031C32.5361 17.089 34.2271 18.78 36.3131 18.78Z" fill="#9C8F62"/>
<path d="M52.9276 14.0613C55.9063 14.0613 58.3211 11.6466 58.3211 8.66786C58.3211 5.68914 55.9063 3.27441 52.9276 3.27441C49.9489 3.27441 47.5342 5.68914 47.5342 8.66786C47.5342 11.6466 49.9489 14.0613 52.9276 14.0613Z" fill="#9C8F62"/>
<path d="M14.6138 81.3042H15.885L16.8684 86.0751L17.8676 81.3042H19.2121L20.2217 86.0751L21.1895 81.3042H22.4921L20.9227 88.628H19.6149L18.5686 83.6321L17.4544 88.6018H16.1413L14.6138 81.3042Z" fill="#9C8F62"/>
<path d="M23.5068 83.6481C23.5068 81.8485 24.4589 81.2051 25.8138 81.2051C27.1687 81.2051 28.1156 81.8485 28.1156 83.6481V86.2637C28.1156 88.058 27.1635 88.7067 25.8138 88.7067C24.4642 88.7067 23.5068 88.058 23.5068 86.2637V83.6481ZM24.9036 86.4363C24.9036 87.2472 25.2541 87.4826 25.8138 87.4826C26.3736 87.4826 26.7188 87.2629 26.7188 86.4363V83.465C26.7188 82.6594 26.3683 82.4187 25.8138 82.4187C25.2593 82.4187 24.9036 82.6437 24.9036 83.465V86.4363Z" fill="#9C8F62"/>
<path d="M32.7245 88.6021L31.5108 85.6307H30.8465V88.6021H29.4497V81.2783H31.469C33.1482 81.2783 33.9486 82.0892 33.9486 83.4598C33.9486 84.37 33.6243 85.0291 32.8448 85.3221L34.2206 88.576L32.7245 88.6021ZM30.8465 84.4799H31.5788C31.8347 84.4615 32.0742 84.3468 32.2489 84.159C32.4237 83.9712 32.5209 83.7242 32.5209 83.4676C32.5209 83.2111 32.4237 82.964 32.2489 82.7762C32.0742 82.5884 31.8347 82.4738 31.5788 82.4554H30.8465V84.4799Z" fill="#9C8F62"/>
<path d="M35.272 88.6021V81.2783H36.6635V87.3623H38.9025V88.5969L35.272 88.6021Z" fill="#9C8F62"/>
<path d="M39.9492 81.3042H41.89C43.4594 81.3042 44.3749 81.9895 44.4377 83.8309V86.0751C44.3749 87.9113 43.4856 88.6018 41.89 88.6018H39.9492V81.3042ZM41.3564 87.362H41.8429C42.6067 87.362 43.0514 87.0011 43.0514 85.9077V83.9878C43.0514 82.9416 42.7113 82.5336 41.8429 82.5336H41.3564V87.362Z" fill="#9C8F62"/>
<path d="M48.7954 88.6021V81.2783H50.1869V87.3623H52.4311V88.5969L48.7954 88.6021Z" fill="#9C8F62"/>
<path d="M53.3623 83.6481C53.3623 81.8485 54.3144 81.2051 55.6641 81.2051C57.0137 81.2051 57.9711 81.8485 57.9711 83.6481V86.2637C57.9711 88.058 57.019 88.7067 55.6641 88.7067C54.3092 88.7067 53.3623 88.058 53.3623 86.2637V83.6481ZM54.7591 86.4363C54.7591 87.2472 55.1096 87.4826 55.6641 87.4826C56.2186 87.4826 56.5743 87.2629 56.5743 86.4363V83.465C56.5743 82.6594 56.2238 82.4187 55.6641 82.4187C55.1043 82.4187 54.7591 82.6437 54.7591 83.465V86.4363Z" fill="#9C8F62"/>
<path d="M63.5262 81.3042V82.5388H61.9202V88.6018H60.5078V82.5388H58.8809V81.3042H63.5262Z" fill="#9C8F62"/>
<path d="M68.7838 81.3042V82.5388H67.1516V88.6018H65.7549V82.5388H64.1279V81.3042H68.7838Z" fill="#9C8F62"/>
<path d="M69.814 88.6021V81.2783H73.6328V82.5129H71.2107V84.2235H73.0574V85.4581H71.2107V87.3623H73.7374V88.5969L69.814 88.6021Z" fill="#9C8F62"/>
<path d="M78.347 88.6021L77.1334 85.6307H76.4638V88.6021H75.0723V81.2783H77.0915C78.7708 81.2783 79.5659 82.0892 79.5659 83.4598C79.5659 84.37 79.2468 85.0291 78.4674 85.3221L79.8432 88.576L78.347 88.6021ZM76.4638 84.4799H77.1805C77.4364 84.4615 77.6758 84.3468 77.8506 84.159C78.0254 83.9712 78.1225 83.7242 78.1225 83.4676C78.1225 83.2111 78.0254 82.964 77.8506 82.7762C77.6758 82.5884 77.4364 82.4738 77.1805 82.4554H76.4638V84.4799Z" fill="#9C8F62"/>
<path d="M82.9131 84.2232L84.0954 81.2832H85.5811L83.588 85.6304V88.5808H82.1964V85.6304L80.2295 81.3041H81.7152L82.9131 84.2232Z" fill="#9C8F62"/>
<path d="M89.0498 88.6021L90.8546 81.2783H92.6437L94.4066 88.6021H93.0727L92.7169 87.0641H90.7866L90.3942 88.6021H89.0498ZM91.0377 85.8295H92.424L91.7439 82.8791L91.0377 85.8295Z" fill="#9C8F62"/>
<path d="M98.4452 83.3341C98.215 82.6488 97.922 82.3558 97.4251 82.3558C97.3172 82.3467 97.2086 82.3622 97.1076 82.401C97.0065 82.4399 96.9156 82.5011 96.8415 82.5801C96.7675 82.6592 96.7124 82.754 96.6803 82.8574C96.6482 82.9608 96.6399 83.0701 96.6561 83.1771C96.6561 84.2809 99.7687 84.3594 99.7687 86.6455C99.7687 87.901 98.9108 88.738 97.446 88.738C96.3161 88.738 95.4372 88.1207 95.0605 86.6873L96.4364 86.3944C96.5985 87.2732 97.1007 87.5871 97.5192 87.5871C97.6342 87.5924 97.749 87.5735 97.8562 87.5316C97.9634 87.4897 98.0606 87.4258 98.1415 87.3439C98.2224 87.262 98.2852 87.1641 98.3258 87.0564C98.3664 86.9487 98.3839 86.8336 98.3772 86.7187C98.3772 85.3429 95.2646 85.322 95.2646 83.2818C95.2646 82.0263 96.0126 81.2416 97.4565 81.2416C97.9812 81.2149 98.4977 81.3793 98.9104 81.7045C99.3231 82.0296 99.6039 82.4934 99.7007 83.0097L98.4452 83.3341Z" fill="#9C8F62"/>
<path d="M104.293 83.3346C104.063 82.6493 103.77 82.3564 103.273 82.3564C103.168 82.348 103.062 82.363 102.963 82.4004C102.864 82.4378 102.775 82.4966 102.701 82.5726C102.628 82.6486 102.572 82.7399 102.538 82.84C102.504 82.9401 102.492 83.0465 102.504 83.1515C102.504 84.2553 105.617 84.3338 105.617 86.6199C105.617 87.8754 104.759 88.7124 103.294 88.7124C102.159 88.7124 101.28 88.0951 100.909 86.6617L102.285 86.3688C102.441 87.2476 102.949 87.5615 103.362 87.5615C103.478 87.5676 103.593 87.5493 103.701 87.5077C103.809 87.4661 103.906 87.4023 103.988 87.3203C104.069 87.2384 104.133 87.1401 104.174 87.0321C104.214 86.924 104.232 86.8085 104.225 86.6931C104.225 85.3173 101.113 85.2964 101.113 83.2562C101.113 82.0007 101.861 81.216 103.305 81.216C103.829 81.1904 104.345 81.3552 104.758 81.6802C105.17 82.0051 105.451 82.4683 105.549 82.9841L104.293 83.3346Z" fill="#9C8F62"/>
<path d="M106.909 83.6481C106.909 81.8485 107.861 81.2051 109.216 81.2051C110.571 81.2051 111.518 81.8485 111.518 83.6481V86.2637C111.518 88.058 110.571 88.7067 109.216 88.7067C107.861 88.7067 106.909 88.058 106.909 86.2637V83.6481ZM108.306 86.4363C108.306 87.2472 108.662 87.4826 109.216 87.4826C109.771 87.4826 110.126 87.2629 110.126 86.4363V83.465C110.126 82.6594 109.771 82.4187 109.216 82.4187C108.662 82.4187 108.306 82.6437 108.306 83.465V86.4363Z" fill="#9C8F62"/>
<path d="M114.102 86.4362C114.102 87.2471 114.453 87.4825 115.013 87.4825C115.572 87.4825 115.923 87.2627 115.923 86.4362V85.9549H117.314V86.2583C117.314 88.0527 116.367 88.7013 115.013 88.7013C113.658 88.7013 112.706 88.0527 112.706 86.2583V83.6427C112.706 81.8432 113.658 81.1997 115.013 81.1997C116.367 81.1997 117.314 81.8432 117.314 83.6427H115.923V83.4387C115.923 82.6331 115.567 82.3924 115.013 82.3924C114.458 82.3924 114.102 82.6174 114.102 83.4387V86.4362Z" fill="#9C8F62"/>
<path d="M118.732 88.6021V81.2783H120.123V88.6021H118.732Z" fill="#9C8F62"/>
<path d="M121.165 88.6021L122.975 81.2783H124.764L126.521 88.6021H125.187L124.832 87.0641H122.901L122.509 88.6021H121.165ZM123.158 85.8295H124.539L123.864 82.8791L123.158 85.8295Z" fill="#9C8F62"/>
<path d="M131.151 81.3042V82.5388H129.524V88.6018H128.127V82.5388H126.5V81.3042H131.151Z" fill="#9C8F62"/>
<path d="M132.26 88.6021V81.2783H133.657V88.6021H132.26Z" fill="#9C8F62"/>
<path d="M135.075 83.6481C135.075 81.8485 136.022 81.2051 137.376 81.2051C138.731 81.2051 139.678 81.8485 139.678 83.6481V86.2637C139.678 88.058 138.731 88.7067 137.376 88.7067C136.022 88.7067 135.075 88.058 135.075 86.2637V83.6481ZM136.466 86.4363C136.466 87.2472 136.822 87.4826 137.376 87.4826C137.931 87.4826 138.287 87.2629 138.287 86.4363V83.465C138.287 82.6594 137.931 82.4187 137.376 82.4187C136.822 82.4187 136.466 82.6437 136.466 83.465V86.4363Z" fill="#9C8F62"/>
<path d="M141.096 88.6021V81.2783H142.623L144.564 85.6046V81.2783H145.84V88.6021H144.522L142.388 83.894V88.6021H141.096Z" fill="#9C8F62"/>
</g>
<defs>
<clipPath id="clip0_790_129">
<rect width="148.286" height="88.7015" fill="white" transform="translate(0.714355)"/>
</clipPath>
</defs>
</svg>
