<svg width="108" height="107" viewBox="0 0 108 107" fill="none" xmlns="http://www.w3.org/2000/svg">
<mask id="mask0_790_63" style="mask-type:luminance" maskUnits="userSpaceOnUse" x="0" y="0" width="108" height="107">
<path d="M107.139 0H0.138672V107H107.139V0Z" fill="white"/>
</mask>
<g mask="url(#mask0_790_63)">
<path d="M54.38 49.8479L54.4411 49.8389L54.576 49.8154L54.7378 49.7867L54.7774 49.7795C55.7161 49.6016 56.61 49.2994 57.4407 48.8911L57.5235 48.8498L57.6457 48.7886L57.7967 48.7095L57.8255 48.6934C58.9926 48.0603 60.0051 47.224 60.8288 46.2423L60.827 46.2404C60.8917 46.1631 60.9565 46.0858 61.0176 46.0084H61.0194L61.059 45.9581L61.0625 45.9528L61.0661 45.9473C61.1093 45.8934 61.1506 45.8377 61.1938 45.7819L61.1974 45.7764L61.2011 45.7711L61.2046 45.7657L61.2082 45.7602L61.2117 45.7549H61.2135L61.2172 45.7495L61.2208 45.7441L61.2244 45.7387L61.2279 45.7332L61.2316 45.7279L61.291 45.6469C62.1235 44.5051 62.7296 43.1869 63.0443 41.7608L63.0479 41.7446C63.0857 41.5755 63.118 41.4048 63.1468 41.2339L63.1486 41.2357C63.3321 40.1513 63.3482 39.0273 63.1756 37.9016L63.1738 37.889L63.172 37.8764C63.1612 37.8063 63.1504 37.7361 63.1378 37.6679L63.1234 37.5869L63.109 37.5078C62.913 36.481 62.5677 35.508 62.0947 34.6108L62.0571 34.5406L62.0048 34.4417L61.9293 34.3049L61.8933 34.242C61.4078 33.4004 60.8144 32.6451 60.1382 31.9851V31.9869C60.0105 31.8629 59.8829 31.7423 59.7479 31.6254V31.6236C59.6634 31.5499 59.5771 31.4762 59.4907 31.4043L59.4818 31.3971L59.4783 31.3954L59.4674 31.3863L59.3362 31.2803L59.3253 31.2712L59.3127 31.2622L59.2534 31.2154H59.2516L59.2408 31.2064L59.2282 31.1975L59.2175 31.1884L59.2049 31.1795L59.1941 31.1705L59.1832 31.1614L59.1706 31.1525L59.158 31.1435L59.1474 31.1346C57.8418 30.1454 56.2988 29.453 54.6156 29.1635C54.5508 29.151 54.4843 29.1402 54.4177 29.1312H54.4124C53.4052 28.9747 52.364 28.964 51.321 29.1168L51.3066 29.1186L51.2275 29.1294L51.2149 29.1312C50.0245 29.3146 48.9004 29.6976 47.8773 30.2444L47.8592 30.2534C47.7963 30.2875 47.7334 30.3216 47.6722 30.3559L47.5841 30.4062L47.5068 30.4511C46.3792 31.1129 45.4063 31.9672 44.6187 32.958L44.615 32.9635C44.5198 33.0821 44.428 33.2043 44.3381 33.3267H44.3363C44.1367 33.6018 43.9496 33.8878 43.7752 34.1827V34.1862C43.6871 34.3356 43.6045 34.4866 43.5235 34.6413L43.5217 34.6376C43.011 35.6142 42.6496 36.6805 42.4679 37.8063L42.459 37.8638L42.4391 38.0006C42.2988 38.9697 42.2952 39.9678 42.4391 40.9696L42.4661 41.1476L42.4679 41.1655L42.4714 41.1853C42.6297 42.1583 42.9229 43.0862 43.3293 43.9511L43.3382 43.9674L43.3418 43.9781L43.4281 44.1543L43.4965 44.2911L43.5056 44.309C44.3939 46.0318 45.7229 47.431 47.3036 48.4074L47.3791 48.4541L47.3935 48.4632L47.4078 48.4722C48.3251 49.0261 49.3356 49.4451 50.4074 49.6968H50.4092L50.4273 49.7003C50.4938 49.7147 50.5604 49.7309 50.6268 49.7453L50.6916 49.7579L50.6952 49.7597L50.7851 49.7778L50.8121 49.7831C51.9684 49.9971 53.1733 50.0295 54.38 49.8479Z" fill="#FFCD00"/>
<path d="M53.7304 0H53.5487C24.0437 0.0485546 0.138672 23.9824 0.138672 53.4983C0.138672 83.0465 24.0923 106.998 53.6405 106.998C83.1869 106.998 107.139 83.0465 107.139 53.4983C107.139 23.9824 83.2354 0.0485546 53.7304 0ZM53.6405 89.7326C33.6288 89.7326 17.4061 73.5099 17.4061 53.4983C17.4043 33.4865 33.627 17.2639 53.6405 17.2639C73.6521 17.2639 89.8748 33.4865 89.8748 53.4964C89.873 73.5099 73.6504 89.7326 53.6405 89.7326Z" fill="#36B0C9"/>
<path fill-rule="evenodd" clip-rule="evenodd" d="M50.0197 55.0301C43.0045 54.1633 36.7193 50.5505 33.3727 44.0909C32.6624 44.9542 32.7901 47.1607 33.3871 48.2612C34.6621 50.6098 38.0375 51.7554 38.3864 52.6671C37.5952 51.7554 34.6999 51.1745 33.797 49.8636C33.6011 50.9731 34.1567 52.3758 35.3436 53.0286C36.3975 53.6094 40.0102 53.9403 40.4959 54.6471C39.6021 54.0519 36.7122 54.2155 35.5307 53.6382C35.8131 54.7675 36.4136 55.548 37.6096 55.8628C38.978 56.2225 42.6521 55.8034 43.3533 56.7673C42.2762 56.1307 40.2028 56.6971 38.8486 56.5676C39.8845 58.3282 47.592 58.83 48.9246 58.6213C48.8724 58.5044 48.8077 58.357 48.5217 58.3229C47.7826 58.2346 46.9032 58.0783 46.2343 57.733C45.8081 57.5136 45.4484 57.3014 44.8083 57.4992C44.9502 56.3106 43.1269 55.521 42.4794 55.726C42.3787 54.924 41.706 54.1309 40.5264 53.5357C42.1952 54.3126 48.3527 55.3358 49.7806 55.1793C49.9119 55.1649 49.9604 55.1237 50.0197 55.0301ZM51.1078 55.4832C51.1311 55.5445 51.2911 55.6667 51.4512 55.6919C51.5339 55.6397 51.6293 55.6091 51.7336 55.5876C51.7263 55.602 51.7192 55.6146 51.7137 55.6308C51.6975 55.6866 51.703 55.744 51.7281 55.7926C51.7533 55.8393 51.7947 55.8789 51.8487 55.8987C51.9242 55.9239 52.0069 55.9005 52.0608 55.8484C52.0842 55.825 52.1022 55.7962 52.113 55.7638C52.1292 55.7171 52.1274 55.6649 52.1094 55.6218C52.1004 55.5965 52.0842 55.575 52.0663 55.5551C52.1562 55.5534 52.2371 55.548 52.3126 55.539C52.2928 55.7099 52.2587 55.8933 52.1183 55.9562C51.9673 56.0191 51.748 56.0173 51.5554 55.834C51.3146 55.8141 51.1833 55.7404 51.025 55.5551C50.4513 55.6919 50.0449 55.9257 50.2229 56.4525C50.2499 56.3932 50.2751 56.3573 50.3147 56.3321C50.4478 56.2475 50.7067 56.2548 50.8632 56.2619L50.6941 56.5029C50.9099 56.4292 52.0194 56.2655 52.7173 57.0245C53.5894 57.9973 56.5279 58.3409 57.731 58.1448C57.6356 57.9451 57.2832 57.733 56.9487 57.6826C56.0261 57.5424 55.4831 57.2888 55.1863 56.9866C63.2392 54.3467 66.5373 47.114 67.7763 43.1612C67.6145 44.6304 67.361 45.9972 68.2079 46.515C67.3214 46.7974 66.1165 49.1766 67.3555 50.5127C65.6508 51.7536 67.5965 53.9224 64.757 55.6631C63.7266 56.1594 62.412 56.7296 60.7449 57.3517C60.2737 57.528 60.0813 57.8984 60.1066 57.992C60.236 58.2078 60.5705 58.2455 60.8853 58.3174C60.8959 59.3208 59.709 59.9773 58.1445 60.0043C57.1986 59.9809 55.8337 60.0006 55.0929 61.1857C55.2582 61.2289 56.357 61.5328 57.1087 61.3854C57.4216 61.3243 57.6374 60.7847 57.6662 60.5294C57.9072 60.88 58.1841 61.3332 58.6498 61.3332C58.9017 61.3332 58.9682 61.3349 59.2289 61.2829C59.6605 61.1966 59.6552 60.6822 59.6012 60.3837C59.9897 60.8315 60.2792 61.1893 60.932 61.0436C61.2089 60.9825 61.0938 61.0042 61.3599 60.9268C61.9714 60.7523 61.6512 60.256 61.3905 59.855C61.921 60.1877 62.385 60.6966 63.0306 60.4664C63.1385 60.4287 63.446 60.3136 63.5772 60.2399C64.1582 59.9107 63.2823 59.132 62.7949 58.7329C64.0969 59.1807 65.248 59.6787 66.1794 58.5656C65.3343 58.2545 63.3309 57.6341 61.6603 57.6755C66.6002 56.5623 69.4524 54.8755 70.9054 52.7156L70.9072 52.7138C71.4827 52.0305 71.8262 51.0594 72.2038 49.9894C71.0817 50.8562 68.76 50.8095 68.1019 51.8957C68.2799 50.7663 69.5998 50.6494 71.0889 50.0093C72.6713 49.3295 73.9662 47.6948 73.8547 45.9271C72.8278 46.828 69.3463 48.1515 69.0172 49.2432C69.2096 48.2989 70.4613 47.0491 71.7757 46.1896C73.5886 45.0045 74.4696 44.6915 74.3654 41.9671C74.3565 41.7027 74.2881 41.2784 74.2233 41.1093C73.0239 42.8644 69.5316 44.8048 69.3678 46.132C69.2114 43.9776 73.9428 41.6146 73.9769 38.7985C74.0003 36.867 73.1282 35.6263 72.2901 34.2883C72.2578 37.9065 69.6142 40.0231 69.4703 42.5282C69.0531 39.365 73.0364 35.0885 69.5297 30.0856C68.7456 28.9671 67.5857 28.1308 65.9007 27.7676C72.3891 41.8395 62.4335 53.5735 54.7026 54.7316C54.0354 54.7711 53.3701 54.6453 52.6255 54.7153C52.2245 54.7532 51.5735 54.9384 51.2911 55.1992C51.1922 55.28 51.1527 55.3628 51.1078 55.4832Z" fill="#36B0C9"/>
<path d="M60.3417 71.4365C60.5161 71.4365 60.6907 71.4436 60.8596 71.4615C61.2319 71.4976 61.5898 71.5803 61.9332 71.69C63.7567 72.2834 65.1289 73.8678 65.422 75.81C65.7655 75.9214 66.1234 76.0006 66.4955 76.0365C66.2636 73.4001 64.3772 71.2404 61.8811 70.5966C61.5484 70.5103 61.2067 70.4545 60.8507 70.4258C60.6799 70.4114 60.509 70.4023 60.3381 70.4023C60.1493 70.4023 59.964 70.4132 59.7789 70.4311C59.7933 70.5966 59.8004 70.7602 59.8004 70.9293C59.8004 71.1109 59.7914 71.2908 59.7734 71.467C59.964 71.4454 60.1493 71.4365 60.3417 71.4365Z" fill="#009640"/>
<path d="M67.0167 64.7305C63.769 64.7305 61.1021 67.2391 60.8521 70.4257C61.2064 70.4545 61.5499 70.5103 61.8826 70.5966C62.048 67.8991 64.2815 65.7627 67.0185 65.7627C69.8636 65.7627 72.169 68.0682 72.169 70.9113C72.169 73.7544 69.8636 76.0599 67.0185 76.0599C66.8423 76.0599 66.6697 76.0527 66.4988 76.0348C66.1266 75.9987 65.767 75.9197 65.4252 75.8064C63.6017 75.2129 62.2278 73.6285 61.9347 71.69C61.5912 71.5785 61.2334 71.4975 60.8611 71.4598C61.0931 74.098 62.9777 76.2595 65.4737 76.9015C65.8064 76.9842 66.1482 77.0435 66.5024 77.0723C66.6732 77.0867 66.8441 77.094 67.0185 77.094C70.4353 77.094 73.203 74.3264 73.203 70.9131C73.2012 67.4981 70.4336 64.7305 67.0167 64.7305Z" fill="#EB0045"/>
<path d="M46.9422 71.4539C47.1184 71.4539 47.2911 71.4629 47.4637 71.4791C47.8342 71.5168 48.1938 71.596 48.5373 71.7075C50.3626 72.301 51.733 73.8852 52.0296 75.8239C52.3731 75.9354 52.731 76.0145 53.1032 76.0503C52.8677 73.4159 50.9848 71.2562 48.4888 70.6159C48.1561 70.5295 47.8126 70.4738 47.4602 70.4432C47.2911 70.4306 47.1184 70.4199 46.944 70.4199C46.7607 70.4199 46.579 70.4307 46.3973 70.445C46.4099 70.6015 46.4189 70.7562 46.4189 70.9144C46.4189 71.105 46.4081 71.2956 46.3901 71.4827C46.5717 71.4665 46.7569 71.4539 46.9422 71.4539Z" fill="#FAB31E"/>
<path d="M52.0762 76.9194C51.9125 79.6169 49.6808 81.7533 46.9401 81.7533C44.194 81.7533 41.9588 79.6006 41.8078 76.8906C41.8023 76.7971 41.7934 76.7035 41.7934 76.601C41.7934 76.3296 41.8204 76.0598 41.8636 75.7955C42.1655 73.8802 43.518 72.3211 45.3127 71.7204C45.3541 71.4561 45.3829 71.19 45.3829 70.9131C45.3829 70.8159 45.3738 70.7205 45.3685 70.6235C42.8958 71.2726 41.0273 73.4162 40.7863 76.0275C40.7701 76.2181 40.7593 76.4087 40.7593 76.5993C40.7593 76.7593 40.7683 76.914 40.7774 77.0705C41.0183 80.2642 43.6851 82.7855 46.9419 82.7855C50.1934 82.7855 52.8567 80.2751 53.1066 77.0867C52.7523 77.0614 52.4071 77.0039 52.0762 76.9194Z" fill="#FFA400"/>
<path d="M53.6189 76.0772C53.4444 76.0772 53.27 76.0682 53.0991 76.0502C52.7288 76.0124 52.3708 75.9351 52.0255 75.8218C50.2003 75.2301 48.83 73.6459 48.5332 71.7055C48.1934 71.5939 47.8319 71.5131 47.4614 71.4771C47.6934 74.1116 49.5798 76.2751 52.0741 76.9153C52.4067 76.9998 52.7503 77.0573 53.1009 77.0879C53.2736 77.1041 53.4444 77.1094 53.6171 77.1094C53.8059 77.1094 53.9912 77.1005 54.1746 77.0861C54.1638 76.9206 54.153 76.7552 54.153 76.5861C54.153 76.4026 54.1638 76.2246 54.1782 76.0467C53.9965 76.0664 53.8095 76.0772 53.6189 76.0772Z" fill="black"/>
<path d="M59.7821 70.4287C59.5268 67.2475 56.867 64.7461 53.6193 64.7461C50.368 64.7461 47.7065 67.2547 47.4565 70.4431C47.8072 70.4719 48.1525 70.5277 48.4852 70.614C48.6488 67.9165 50.8787 65.7801 53.6193 65.7801C56.3564 65.7801 58.5863 67.9128 58.7517 70.6085C58.7607 70.7147 58.7698 70.8208 58.7698 70.9286C58.7698 71.1931 58.7428 71.4501 58.7049 71.7037C58.4154 73.6315 57.0576 75.2051 55.254 75.811C55.2144 76.0664 55.1911 76.3219 55.1911 76.5879C55.1911 76.6959 55.2 76.8002 55.2055 76.9063C57.6871 76.2517 59.5556 74.0937 59.7803 71.4682C59.7965 71.2883 59.8073 71.1085 59.8073 70.9286C59.8037 70.7596 59.7984 70.5959 59.7821 70.4287Z" fill="#24272A"/>
<path d="M65.4735 76.9021C65.3099 79.596 63.0782 81.7359 60.3411 81.7359C57.6022 81.7359 55.3722 79.5978 55.2051 76.9074C55.1978 76.8014 55.1889 76.6952 55.1889 76.5874C55.1889 76.3213 55.2141 76.0658 55.2536 75.8122C55.5449 73.8826 56.8991 72.3092 58.7047 71.7049C58.7441 71.4513 58.7693 71.1925 58.7693 70.9298C58.7693 70.8202 58.7603 70.714 58.7532 70.6079C56.2751 71.2625 54.4066 73.4205 54.18 76.0461C54.1656 76.2259 54.1548 76.4039 54.1548 76.5874C54.1548 76.7547 54.1656 76.9218 54.1764 77.0872C54.4299 80.2667 57.0915 82.77 60.3411 82.77C63.5889 82.77 66.2522 80.2594 66.5004 77.0748C66.1497 77.044 65.8062 76.9847 65.4735 76.9021Z" fill="#00953B"/>
<path d="M46.3955 70.4459C46.1545 67.2467 43.4894 64.729 40.2291 64.729C36.8177 64.729 34.0483 67.4966 34.0483 70.9134C34.0483 74.3267 36.8177 77.0943 40.2291 77.0943C40.4161 77.0943 40.5996 77.0872 40.7758 77.0728C40.7667 76.9163 40.7596 76.7634 40.7596 76.6016C40.7596 76.411 40.7704 76.2204 40.7848 76.0298C40.6049 76.0513 40.4179 76.0639 40.2308 76.0639C37.3895 76.0639 35.0823 73.7585 35.0823 70.9171C35.0823 68.0703 37.3895 65.7667 40.2308 65.7667C42.9787 65.7667 45.2159 67.9176 45.3687 70.6276C45.3722 70.7228 45.3848 70.8182 45.3848 70.9171C45.3848 71.1923 45.3561 71.4602 45.3147 71.7227C45.0126 73.6361 43.6585 75.1971 41.8655 75.7978C41.8224 76.0621 41.7972 76.3319 41.7972 76.6033C41.7972 76.7041 41.8044 76.7994 41.8098 76.8947C44.2825 76.2474 46.151 74.102 46.3902 71.4854C46.4081 71.2983 46.419 71.1077 46.419 70.9171C46.417 70.7552 46.4099 70.6006 46.3955 70.4459Z" fill="#0075C9"/>
<path fill-rule="evenodd" clip-rule="evenodd" d="M52.279 99.966C53.3508 98.2558 51.7289 97.47 51.0671 97.9574C50.2596 98.5526 50.6804 99.4553 51.2612 99.5184C50.1157 99.8582 49.08 99.2629 49.0439 98.1066C49.0206 97.3387 49.4288 96.6932 49.988 96.3136C50.6193 95.8857 51.4518 95.7886 52.2701 96.1069C51.6083 94.8841 52.5776 93.4059 53.6315 92.6812C54.6853 93.4076 55.6546 94.8841 54.9946 96.1069C55.8127 95.7886 56.6454 95.8875 57.2748 96.3136C57.8359 96.6932 58.2441 97.3405 58.219 98.1066C58.1848 99.2629 57.1472 99.86 56.0017 99.5184C56.5826 99.4553 57.0016 98.5526 56.1959 97.9574C55.5358 97.47 53.912 98.2558 54.9838 99.966C55.5179 100.817 55.455 101.728 54.6241 102.52L53.6297 103.493L52.6352 102.52C51.808 101.728 51.7451 100.817 52.279 99.966Z" fill="white"/>
<path d="M40.6339 98.9915L39.5765 98.6372L38.645 94.7114L38.6324 94.7061L37.5427 97.9538L36.5464 97.6194L38.1703 92.7783L39.2348 93.1345L40.1609 97.0511L40.1753 97.0547L41.2615 93.8141L42.2578 94.1485L40.6339 98.9915Z" fill="white"/>
<path d="M33.8647 96.4331L32.8252 95.9386L33.2964 90.5059L34.3503 91.0075L34.21 92.1999L35.9345 93.0216L36.7852 92.1674L37.812 92.6566L33.8647 96.4331ZM35.3088 93.6511L34.1146 93.0809L33.8899 95.0501L33.9025 95.0556L35.3088 93.6511Z" fill="white"/>
<path d="M30.3135 93.5214L31.6264 94.309L31.1407 95.12L27.5513 92.9675L28.0369 92.1583L29.3496 92.9459L31.4914 89.3745L32.4554 89.9518L30.3135 93.5214Z" fill="white"/>
<path d="M26.7774 92.3908L25.8604 91.7398L28.8186 87.5713L29.7356 88.2223L26.7774 92.3908Z" fill="white"/>
<path d="M22.8866 89.5427C21.6835 88.5159 21.7428 87.0142 22.7283 85.8598C23.685 84.7394 25.1597 84.4463 26.3627 85.4731C27.5658 86.5 27.5065 88.0015 26.548 89.1237C25.5643 90.2765 24.0896 90.5696 22.8866 89.5427ZM25.7496 86.1906C24.9817 85.536 24.1364 85.9424 23.5825 86.5899C23.0017 87.2697 22.7319 88.1688 23.4998 88.8252C24.2659 89.4799 25.1129 89.0733 25.6938 88.3937C26.2476 87.7462 26.5174 86.8471 25.7496 86.1906Z" fill="white"/>
<path d="M20.1116 86.8689L19.3599 86.0435L20.4604 82.1609L20.4514 82.1501L17.9158 84.4555L17.209 83.6769L20.9873 80.2402L21.7425 81.0712L20.642 84.9429L20.651 84.9537L23.1813 82.6536L23.8881 83.4323L20.1116 86.8689Z" fill="white"/>
<path d="M15.4482 81.3436L14.7793 80.4049L17.8329 75.8838L18.5091 76.8351L17.8059 77.8098L18.9136 79.3654L20.0736 79.0327L20.7335 79.9589L15.4482 81.3436ZM18.0631 79.6136L17.2952 78.5347L16.1406 80.1477L16.1497 80.1585L18.0631 79.6136Z" fill="white"/>
<path d="M13.2075 78.0276L12.6572 77.0494L16.2863 75.0083L15.0651 72.8377L15.8888 72.3755L17.6602 75.5244L13.2075 78.0276Z" fill="white"/>
<path d="M9.09999 69.6886C8.55869 68.2032 9.34996 66.9246 10.776 66.4066C12.1607 65.9031 13.5886 66.3725 14.1281 67.8579C14.6694 69.3433 13.8781 70.6219 12.4934 71.1255C11.0673 71.6434 9.63949 71.174 9.09999 69.6886ZM13.2397 68.1799C12.8944 67.2321 11.9575 67.1692 11.1591 67.4605C10.3193 67.7662 9.64129 68.4172 9.98656 69.3648C10.3318 70.3126 11.267 70.3755 12.1086 70.0698C12.9088 69.7785 13.585 69.1275 13.2397 68.1799Z" fill="white"/>
<path d="M8.03338 66.0351L7.77441 64.9418L11.826 63.9796L11.2506 61.5573L12.1695 61.3379L13.0039 64.8536L8.03338 66.0351Z" fill="white"/>
<path d="M10.0527 60.5086L7.23834 62.8213L7.0549 61.5678L8.8784 60.0931L6.71142 59.2102L6.52979 57.9712L9.91782 59.3919L11.8564 59.1094L12.0183 60.2208L10.0527 60.5086Z" fill="white"/>
<path d="M6.43332 56.9626L6.40815 55.3819L9.90049 54.1303V54.116L6.37039 53.0422L6.34521 51.4615L11.4524 51.3789L11.4686 52.4308L7.84861 52.4884V52.5028L11.4884 53.6969L11.5028 54.5618L7.94032 55.8711V55.8855L11.5244 55.8279L11.5405 56.8781L6.43332 56.9626Z" fill="white"/>
<path d="M6.4834 49.8816L6.74955 47.5941C6.897 46.3299 7.75661 45.9326 8.58023 46.0296C9.40387 46.1267 10.1502 46.7093 10.0027 47.9737L9.86603 49.1462L11.6841 49.3583L11.5547 50.4732L6.4834 49.8816ZM9.00104 49.0437L9.10174 48.1769C9.1629 47.6589 9.10174 47.1841 8.45616 47.1086C7.80876 47.0331 7.64151 47.4827 7.58216 48.0007L7.48147 48.8673L9.00104 49.0437Z" fill="white"/>
<path d="M7.18457 44.7856L7.40397 43.6851L12.4105 44.683L12.1911 45.7836L7.18457 44.7856Z" fill="white"/>
<path d="M10.2683 39.5191C9.76119 39.4453 9.25405 39.805 9.0976 40.3391C8.81527 41.3067 9.5328 41.9108 10.3906 42.1609C11.207 42.3982 12.1368 42.276 12.4191 41.3085C12.6115 40.6502 12.2662 40.1468 11.6458 39.877L11.9497 38.8339C13.1402 39.2997 13.6761 40.3715 13.3254 41.5728C12.8831 43.0888 11.4912 43.6517 10.0777 43.2398C8.62285 42.8154 7.75067 41.5944 8.19305 40.0766C8.50775 38.9993 9.40332 38.2764 10.5722 38.476L10.2683 39.5191Z" fill="white"/>
<path d="M13.2934 32.3271C12.8061 32.1671 12.245 32.4332 12.0004 32.935C11.5563 33.8394 12.1587 34.5588 12.9607 34.9508C13.7232 35.3249 14.6602 35.3644 15.1044 34.4599C15.4065 33.843 15.1529 33.2892 14.5882 32.9169L15.0665 31.9422C16.1582 32.6058 16.5016 33.7531 15.9513 34.8771C15.2554 36.296 13.7862 36.6088 12.4644 35.9615C11.1031 35.2942 10.4557 33.9402 11.1516 32.5213C11.6462 31.5141 12.6532 30.9567 13.7718 31.3541L13.2934 32.3271Z" fill="white"/>
<path d="M14.0867 27.406C14.9589 26.086 16.4551 25.9619 17.7211 26.7981C18.9511 27.6109 19.4224 29.0369 18.552 30.3569C17.6797 31.677 16.1835 31.801 14.9535 30.9882C13.6875 30.1519 13.2145 28.7259 14.0867 27.406ZM17.7642 29.8354C18.32 28.9938 17.8129 28.2044 17.1026 27.7349C16.3562 27.2422 15.4301 27.0859 14.8744 27.9275C14.3187 28.7691 14.8258 29.5585 15.5721 30.0512C16.2825 30.5206 17.2086 30.6771 17.7642 29.8354Z" fill="white"/>
<path d="M16.4121 24.26L17.4588 23.0749L20.881 24.5064L20.8899 24.4955L19.0072 21.3233L20.0538 20.1382L23.8806 23.5209L23.1846 24.3085L20.4728 21.9114L20.4638 21.9222L22.3466 25.2581L21.7729 25.9055L18.2591 24.4685L18.25 24.4794L20.935 26.8532L20.2391 27.6408L16.4121 24.26Z" fill="white"/>
<path d="M21.2358 18.9908L22.4496 17.9765L25.62 19.9061L25.6309 19.897L24.2463 16.4767L25.46 15.4624L28.7367 19.3828L27.9292 20.0571L25.6074 17.2786L25.5968 17.2877L26.9581 20.8681L26.2927 21.4239L23.0324 19.4762L23.0215 19.4853L25.3216 22.2367L24.5141 22.911L21.2358 18.9908Z" fill="white"/>
<path d="M26.6934 14.6724L27.6231 14.043L30.486 18.2709L29.5563 18.9002L26.6934 14.6724Z" fill="white"/>
<path d="M30.1855 13.5528L28.8567 14.3135L28.3872 13.4934L32.0198 11.4146L32.4891 12.2346L31.1603 12.9953L33.23 16.6099L32.2554 17.1673L30.1855 13.5528Z" fill="white"/>
<path d="M34.4029 11.357L33.0038 11.9757L32.6226 11.1125L36.4494 9.41846L36.8306 10.2817L35.4315 10.9003L37.1165 14.7073L36.0897 15.1623L34.4029 11.357Z" fill="white"/>
<path d="M37.4541 9.05105L41.0921 7.88574L41.3798 8.78489L38.8117 9.60853L39.1462 10.6516L41.5038 9.89626L41.7701 10.7271L39.4124 11.4824L39.7936 12.6747L42.4174 11.8348L42.7051 12.734L39.0114 13.9173L37.4541 9.05105Z" fill="white"/>
<path d="M42.3667 7.55921L46.1107 6.79492L46.2995 7.72106L43.6561 8.26055L43.8755 9.33235L46.3013 8.83782L46.4758 9.69382L44.0499 10.1884L44.2998 11.4148L46.999 10.8645L47.188 11.7907L43.3881 12.5657L42.3667 7.55921Z" fill="white"/>
<path d="M51.9811 6.14782C53.5618 6.09388 54.5329 7.2412 54.5851 8.75718C54.6356 10.2318 53.7471 11.4439 52.1664 11.4978C50.5857 11.5536 49.6146 10.4044 49.5642 8.93162C49.5121 7.41563 50.4004 6.20177 51.9811 6.14782ZM52.1341 10.5537C53.1428 10.5195 53.4918 9.64735 53.4631 8.79675C53.4324 7.90299 53.0224 7.05777 52.0154 7.09194C51.0065 7.1261 50.6576 7.99829 50.6882 8.89206C50.717 9.74267 51.1252 10.5879 52.1341 10.5537Z" fill="white"/>
<path d="M55.7772 6.26514L59.3559 6.54747L59.2822 7.48799L56.8238 7.29377L56.7322 8.46987L58.8632 8.63892L58.7949 9.50751L56.6638 9.34026L56.4984 11.4425L55.3799 11.3544L55.7772 6.26514Z" fill="white"/>
<path d="M63.5636 8.25088L62.0728 7.90561L62.285 6.98486L66.3619 7.92898L66.1496 8.84792L64.657 8.50265L63.7183 12.5597L62.623 12.3061L63.5636 8.25088Z" fill="white"/>
<path d="M67.431 8.23926L68.4885 8.6151L67.8321 10.462L69.7796 11.1543L70.4361 9.30745L71.4935 9.68331L69.7815 14.4956L68.7222 14.118L69.4615 12.0427L67.5138 11.3504L66.7747 13.4256L65.7173 13.048L67.431 8.23926Z" fill="white"/>
<path d="M72.8952 10.293L76.321 11.9834L75.9037 12.8304L73.4851 11.6363L73.0013 12.6182L75.2204 13.7134L74.8339 14.4956L72.6128 13.4005L72.059 14.5226L74.5299 15.7419L74.1127 16.5889L70.6348 14.8716L72.8952 10.293Z" fill="white"/>
<path d="M79.3983 13.8198L81.639 15.4203C82.3836 15.9526 82.4861 16.8086 82.0365 17.4362C81.6875 17.9254 81.2273 18.1502 80.6338 18.0081L80.6265 18.019C80.9916 18.4559 80.8082 18.9828 80.5367 19.4235C80.3676 19.6986 80.0116 20.1823 80.008 20.5311L79.0943 19.8784C79.1718 19.5366 79.4702 19.1446 79.6609 18.7796C79.9091 18.2977 79.8766 17.9847 79.4181 17.6557L78.5046 17.0028L77.3447 18.6268L76.4312 17.974L79.3983 13.8198ZM78.9686 16.3519L79.9702 17.0676C80.3784 17.3589 80.7237 17.3427 81.024 16.9237C81.3099 16.5227 81.2146 16.19 80.8065 15.8986L79.8048 15.183L78.9686 16.3519Z" fill="white"/>
<path d="M83.955 17.2056L86.7892 19.7664L86.1562 20.4677L84.1547 18.6605L83.4209 19.4715L85.257 21.1313L84.6726 21.7787L82.8365 20.1188L81.9967 21.0485L84.0396 22.8955L83.4065 23.5968L80.5293 20.9982L83.955 17.2056Z" fill="white"/>
<path d="M87.7157 20.7061L89.2459 22.4289C90.093 23.3818 89.8161 24.2865 89.1957 24.8385C88.5752 25.3906 87.642 25.5579 86.7966 24.6066L86.0126 23.7236L84.6424 24.941L83.896 24.1012L87.7157 20.7061ZM86.6654 23.1427L87.2462 23.7955C87.5933 24.1858 87.9873 24.4574 88.4745 24.0257C88.9619 23.5923 88.7388 23.1697 88.3919 22.7795L87.8109 22.1267L86.6654 23.1427Z" fill="white"/>
<path d="M91.0583 30.0889C89.9272 30.8785 88.9094 30.5961 88.1271 29.4758C87.3411 28.35 87.4274 27.3123 88.5658 26.5193L91.1681 24.7012L91.8118 25.622L89.2078 27.44C88.7511 27.7583 88.3806 28.1917 88.9003 28.9362C89.3589 29.5926 89.7923 29.6035 90.4144 29.1701L93.0166 27.3519L93.6586 28.2727L91.0583 30.0889Z" fill="white"/>
<path d="M94.4483 29.5767L95.5759 31.6988C96.0327 32.5583 96.0633 33.2866 95.2234 33.7326C94.781 33.9681 94.3548 33.9106 93.9575 33.6193C94.0905 34.2541 93.8154 34.7559 93.2543 35.0543C92.339 35.5417 91.5333 34.9717 91.1016 34.1571L89.9399 31.9721L94.4483 29.5767ZM91.2366 32.5547L91.8013 33.6157C92.0098 34.0077 92.3173 34.2811 92.785 34.0329C93.2452 33.7884 93.274 33.3999 93.0493 32.9773L92.4756 31.8965L91.2366 32.5547ZM93.15 31.5387L93.6841 32.5439C93.8692 32.891 94.1642 33.0672 94.5437 32.8658C94.9735 32.6375 94.8872 32.2616 94.7001 31.9073L94.2074 30.9794L93.15 31.5387Z" fill="white"/>
<path d="M96.9537 34.5093L97.369 35.5523L93.499 37.0916L94.4198 39.4061L93.5422 39.755L92.2061 36.3975L96.9537 34.5093Z" fill="white"/>
<path d="M98.5758 38.8271L98.9121 39.8989L94.035 41.4274L93.6987 40.3556L98.5758 38.8271Z" fill="white"/>
<path d="M98.3847 44.9231C98.8648 44.7449 99.1382 44.1875 99.0194 43.6426C98.8037 42.6571 97.8847 42.4701 97.0107 42.6626C96.178 42.8441 95.421 43.398 95.6368 44.3836C95.7842 45.0543 96.3274 45.3313 97.0035 45.2702L97.2354 46.3329C95.9677 46.4929 94.9822 45.8078 94.7142 44.5849C94.3762 43.042 95.3311 41.8803 96.7697 41.5656C98.2515 41.2419 99.6021 41.8965 99.9402 43.4412C100.181 44.5382 99.7387 45.6011 98.6147 45.9858L98.3847 44.9231Z" fill="white"/>
<path d="M100.97 51.4992C101.037 53.0781 99.8967 54.0563 98.3807 54.1194C96.9097 54.1805 95.6923 53.3011 95.6257 51.7221C95.5609 50.1432 96.6993 49.165 98.1721 49.1037C99.6882 49.0409 100.906 49.9203 100.97 51.4992ZM96.5698 51.6825C96.6129 52.6897 97.4851 53.0332 98.3357 52.9971C99.2278 52.9595 100.071 52.5458 100.028 51.5388C99.9866 50.5317 99.1127 50.1882 98.2206 50.226C97.37 50.2619 96.5284 50.6755 96.5698 51.6825Z" fill="white"/>
<path d="M100.888 55.301L100.631 58.8832L99.6884 58.8149L99.8646 56.353L98.6866 56.2684L98.5338 58.4013L97.6635 58.3383L97.8162 56.2055L95.7104 56.0545L95.7913 54.9341L100.888 55.301Z" fill="white"/>
<path d="M100.128 62.2579L99.8723 63.3512L97.8115 62.8692L99.4174 65.2933L99.0991 66.6584L97.5902 64.2576L94.0835 65.6836L94.4055 64.3116L96.9896 63.3368L96.5022 62.5618L94.9018 62.1877L95.1571 61.0942L100.128 62.2579Z" fill="white"/>
<path d="M98.2631 69.0859L97.8711 70.1686L92.4204 70.2226L92.8178 69.1273L94.0173 69.1525L94.6683 67.3578L93.7368 66.5935L94.1251 65.5254L98.2631 69.0859ZM95.3552 67.9171L94.9038 69.1616L96.8838 69.1957L96.8892 69.1813L95.3552 67.9171Z" fill="white"/>
<path d="M93.1708 70.6671L94.8901 74.5749L96.0104 72.3126L96.8555 72.7315L95.0716 76.3318L94.2768 75.938L92.5577 72.0302L91.3097 74.5479L90.4644 74.1288L92.376 70.2715L93.1708 70.6671Z" fill="white"/>
<path d="M93.6894 78.5934L93.0654 79.5609L87.7388 78.3973L88.37 77.4173L89.5353 77.7086L90.5712 76.1027L89.8321 75.1496L90.449 74.1929L93.6894 78.5934ZM91.1142 76.804L90.3968 77.9172L92.321 78.392L92.3281 78.3794L91.1142 76.804Z" fill="white"/>
<path d="M91.4381 81.9343L90.724 82.7993L89.0913 81.4541L89.4545 84.3386L88.5625 85.4195L88.2765 82.5979L84.502 82.3209L85.3975 81.2348L88.1453 81.5081L88.0518 80.5981L86.7839 79.5516L87.498 78.6865L91.4381 81.9343Z" fill="white"/>
<path d="M87.7448 86.2819L86.93 87.0553L85.5795 85.6346L84.0816 87.0588L85.4321 88.4795L84.6175 89.2527L81.0981 85.5519L81.9128 84.7786L83.4306 86.3755L84.9285 84.9513L83.4107 83.3543L84.2254 82.5811L87.7448 86.2819Z" fill="white"/>
<path d="M80.7741 87.9531C80.3657 87.41 79.7831 87.5162 79.303 87.8757C78.9882 88.1114 78.5765 88.5645 78.8893 88.9818C79.2202 89.4223 79.8874 89.0375 80.6085 88.748C81.335 88.453 82.1228 88.2283 82.6981 88.9962C83.3241 89.8305 82.8367 90.8232 82.0976 91.3771C81.2451 92.0173 80.1824 92.2331 79.4738 91.289L80.3442 90.6362C80.7416 91.1074 81.1858 90.9707 81.6139 90.6488C81.8997 90.4348 82.1425 90.0644 81.8835 89.7209C81.648 89.4061 81.4231 89.5122 80.2021 90.0158C79.8497 90.165 78.7923 90.6632 78.0963 89.7353C77.5335 88.9853 77.7024 87.9819 78.8138 87.151C79.7184 86.4731 80.8998 86.2842 81.6427 87.3004L80.7741 87.9531Z" fill="white"/>
<path d="M77.8389 92.9974L79.1535 92.2115L79.6372 93.0227L76.0442 95.1698L75.5587 94.3588L76.8733 93.5729L74.7368 89.9979L75.7008 89.4224L77.8389 92.9974Z" fill="white"/>
<path d="M74.3291 96.0002L73.2878 96.4929L69.3765 92.6931L70.4303 92.1949L71.2664 93.0581L72.9928 92.2418L72.8688 91.0423L73.8974 90.5566L74.3291 96.0002ZM73.0864 93.121L71.8904 93.6876L73.2734 95.1065L73.286 95.101L73.0864 93.121Z" fill="white"/>
<path d="M70.6369 97.6605L69.5777 98.0147L66.4703 95.4377L66.4559 95.4412L67.5421 98.6927L66.544 99.0254L64.9272 94.1789L65.9937 93.8229L69.0922 96.3944L69.1066 96.3908L68.024 93.1467L69.0221 92.814L70.6369 97.6605Z" fill="white"/>
</g>
</svg>
