<svg width="122" height="105" viewBox="0 0 122 105" fill="none" xmlns="http://www.w3.org/2000/svg">
<path d="M120.067 33.3909C119.554 33.3909 119.062 33.1923 118.699 32.8389C118.337 32.4855 118.133 32.0061 118.133 31.5064V25.9711C118.126 25.7197 118.171 25.4693 118.265 25.235C118.359 25.0006 118.501 24.787 118.681 24.6067C118.861 24.4265 119.076 24.2832 119.314 24.1853C119.552 24.0876 119.808 24.0371 120.066 24.0371C120.324 24.0371 120.58 24.0876 120.818 24.1853C121.056 24.2832 121.271 24.4265 121.451 24.6067C121.632 24.787 121.773 25.0006 121.867 25.235C121.961 25.4693 122.006 25.7197 121.999 25.9711V31.5064C121.999 32.006 121.796 32.4851 121.433 32.8385C121.071 33.1919 120.579 33.3905 120.067 33.3909ZM114.616 33.8168V22.6267C114.623 22.3751 114.578 22.1247 114.484 21.8905C114.39 21.6561 114.249 21.4425 114.068 21.2621C113.888 21.0819 113.673 20.9387 113.435 20.8408C113.197 20.743 112.941 20.6926 112.683 20.6926C112.425 20.6926 112.169 20.743 111.931 20.8408C111.693 20.9387 111.478 21.0819 111.298 21.2621C111.118 21.4425 110.976 21.6561 110.882 21.8905C110.788 22.1247 110.743 22.3751 110.75 22.6267V33.8168C110.743 34.0684 110.788 34.3187 110.882 34.553C110.976 34.7874 111.118 35.001 111.298 35.1812C111.478 35.3616 111.693 35.5048 111.931 35.6026C112.169 35.7005 112.425 35.7509 112.683 35.7509C112.941 35.7509 113.197 35.7005 113.435 35.6026C113.673 35.5048 113.888 35.3616 114.068 35.1812C114.249 35.001 114.39 34.7874 114.484 34.553C114.578 34.3187 114.623 34.0684 114.616 33.8168ZM107.233 41.8994V20.961C107.233 20.461 107.03 19.9818 106.667 19.6284C106.304 19.2748 105.812 19.0764 105.299 19.0764C104.787 19.0764 104.295 19.2748 103.932 19.6284C103.569 19.9818 103.365 20.461 103.365 20.961V41.9033C103.365 42.403 103.569 42.8825 103.932 43.2359C104.295 43.5892 104.787 43.7879 105.299 43.7879C105.812 43.7879 106.304 43.5892 106.667 43.2359C107.03 42.8825 107.233 42.403 107.233 41.9033V41.8994ZM99.8504 53.0387V16.5928C99.8504 16.0928 99.6467 15.6136 99.2841 15.2602C98.9214 14.9067 98.4294 14.7082 97.9165 14.7082C97.4037 14.7082 96.9117 14.9067 96.549 15.2602C96.1863 15.6136 95.9826 16.0928 95.9826 16.5928V53.0426C95.9826 53.5424 96.1863 54.0218 96.549 54.3752C96.9117 54.7286 97.4037 54.9272 97.9165 54.9272C98.4294 54.9272 98.9214 54.7286 99.2841 54.3752C99.6467 54.0218 99.8504 53.5424 99.8504 53.0426V53.0387ZM92.4663 50.6175V9.68225C92.473 9.43069 92.4279 9.18034 92.3339 8.94599C92.2398 8.71164 92.0985 8.49803 91.9183 8.31776C91.7381 8.13749 91.5227 7.99422 91.2847 7.89639C91.0467 7.79856 90.7912 7.74816 90.5329 7.74816C90.2747 7.74816 90.019 7.79856 89.781 7.89639C89.5432 7.99422 89.3277 8.13749 89.1476 8.31776C88.9674 8.49803 88.8261 8.71164 88.7319 8.94599C88.6378 9.18034 88.5929 9.43069 88.5996 9.68225V50.6175C88.6128 51.1086 88.8223 51.5753 89.1835 51.9181C89.5445 52.2608 90.0287 52.4526 90.5329 52.4526C91.037 52.4526 91.5212 52.2608 91.8824 51.9181C92.2434 51.5753 92.4529 51.1086 92.4663 50.6175ZM85.0833 52.2638V9.46215C85.0699 8.97107 84.8605 8.50447 84.4994 8.16171C84.1382 7.81894 83.654 7.62713 83.1499 7.62713C82.6458 7.62713 82.1617 7.81894 81.8005 8.16171C81.4393 8.50447 81.2299 8.97107 81.2166 9.46215V52.2638C81.2099 52.5154 81.2548 52.7657 81.3489 53.0001C81.4431 53.2343 81.5844 53.4481 81.7646 53.6283C81.9448 53.8085 82.1602 53.9519 82.3982 54.0496C82.636 54.1475 82.8917 54.1978 83.1499 54.1978C83.4082 54.1978 83.6639 54.1475 83.9017 54.0496C84.1397 53.9519 84.3551 53.8085 84.5353 53.6283C84.7155 53.4481 84.8568 53.2343 84.9509 53.0001C85.0451 52.7657 85.09 52.5154 85.0833 52.2638ZM77.7002 52.803V7.09572C77.7002 6.5959 77.4965 6.11655 77.1339 5.76312C76.771 5.4097 76.2792 5.21115 75.7663 5.21115C75.2533 5.21115 74.7615 5.4097 74.3988 5.76312C74.0361 6.11655 73.8323 6.5959 73.8323 7.09572V52.8095C73.8323 53.3093 74.0361 53.7886 74.3988 54.1421C74.7615 54.4955 75.2533 54.694 75.7663 54.694C76.2792 54.694 76.771 54.4955 77.1339 54.1421C77.4965 53.7886 77.7002 53.3093 77.7002 52.8095V52.803ZM70.3172 56.5096V1.96951C70.3172 1.4697 70.1135 0.990356 69.7509 0.636934C69.3882 0.283511 68.8962 0.0849609 68.3833 0.0849609C67.8705 0.0849609 67.3785 0.283511 67.0158 0.636934C66.6531 0.990356 66.4494 1.4697 66.4494 1.96951V56.5096C66.4494 57.0093 66.6531 57.4888 67.0158 57.8422C67.3785 58.1955 67.8705 58.3942 68.3833 58.3942C68.8962 58.3942 69.3882 58.1955 69.7509 57.8422C70.1135 57.4888 70.3172 57.0093 70.3172 56.5096ZM62.933 57.9031V4.58992C62.9398 4.33835 62.8947 4.088 62.8007 3.85365C62.7066 3.6193 62.5653 3.4057 62.3851 3.22542C62.2049 3.04517 61.9895 2.90188 61.7515 2.80405C61.5137 2.70622 61.258 2.65583 60.9997 2.65583C60.7415 2.65583 60.4858 2.70622 60.2478 2.80405C60.01 2.90188 59.7944 3.04517 59.6144 3.22542C59.4342 3.4057 59.2929 3.6193 59.1987 3.85365C59.1046 4.088 59.0597 4.33835 59.0664 4.58992V57.9031C59.0597 58.1547 59.1046 58.4051 59.1987 58.6393C59.2929 58.8737 59.4342 59.0873 59.6144 59.2675C59.7944 59.4479 60.01 59.5911 60.2478 59.689C60.4858 59.7868 60.7415 59.8372 60.9997 59.8372C61.258 59.8372 61.5137 59.7868 61.7515 59.689C61.9895 59.5911 62.2049 59.4479 62.3851 59.2675C62.5653 59.0873 62.7066 58.8737 62.8007 58.6393C62.8947 58.4051 62.9398 58.1547 62.933 57.9031ZM55.55 51.6712V6.11892C55.5568 5.86736 55.5119 5.617 55.4177 5.38265C55.3236 5.1483 55.1823 4.9347 55.0021 4.75443C54.8219 4.57416 54.6065 4.43088 54.3685 4.33305C54.1306 4.23523 53.875 4.18483 53.6167 4.18483C53.3585 4.18483 53.1028 4.23523 52.865 4.33305C52.627 4.43088 52.4116 4.57416 52.2314 4.75443C52.0512 4.9347 51.9099 5.1483 51.8157 5.38265C51.7216 5.617 51.6767 5.86736 51.6834 6.11892V51.6712C51.6967 52.1623 51.9061 52.6289 52.2673 52.9716C52.6285 53.3144 53.1125 53.5061 53.6167 53.5061C54.1208 53.5061 54.605 53.3144 54.9661 52.9716C55.3273 52.6289 55.5367 52.1623 55.55 51.6712ZM48.167 43.8946V8.20924C48.1738 7.95768 48.1289 7.70734 48.0347 7.47299C47.9406 7.23864 47.7993 7.02502 47.6191 6.84477C47.439 6.66449 47.2235 6.52122 46.9856 6.42339C46.7476 6.32556 46.492 6.27515 46.2338 6.27515C45.9755 6.27515 45.7198 6.32556 45.482 6.42339C45.244 6.52122 45.0286 6.66449 44.8484 6.84477C44.6682 7.02502 44.5269 7.23864 44.4327 7.47299C44.3387 7.70734 44.2937 7.95768 44.3004 8.20924V43.8946C44.2937 44.1462 44.3387 44.3966 44.4327 44.6308C44.5269 44.8652 44.6682 45.0788 44.8484 45.2592C45.0286 45.4394 45.244 45.5826 45.482 45.6805C45.7198 45.7783 45.9755 45.8287 46.2338 45.8287C46.492 45.8287 46.7476 45.7783 46.9856 45.6805C47.2235 45.5826 47.439 45.4394 47.6191 45.2592C47.7993 45.0788 47.9406 44.8652 48.0347 44.6308C48.1289 44.3966 48.1738 44.1462 48.167 43.8946ZM40.784 42.5584V20.2524C40.784 19.7526 40.5803 19.2732 40.2177 18.9198C39.855 18.5664 39.363 18.3678 38.8502 18.3678C38.3373 18.3678 37.8453 18.5664 37.4826 18.9198C37.1199 19.2732 36.9162 19.7526 36.9162 20.2524V42.5584C36.9162 43.0582 37.1199 43.5376 37.4826 43.891C37.8453 44.2444 38.3373 44.443 38.8502 44.443C39.363 44.443 39.855 44.2444 40.2177 43.891C40.5803 43.5376 40.784 43.0582 40.784 42.5584ZM33.3998 56.8234V19.514C33.3865 19.0229 33.177 18.5562 32.8159 18.2135C32.4548 17.8707 31.9706 17.679 31.4664 17.679C30.9623 17.679 30.4781 17.8707 30.1171 18.2135C29.7559 18.5562 29.5464 19.0229 29.5332 19.514V56.8234C29.5464 57.3145 29.7559 57.7811 30.1171 58.1239C30.4781 58.4666 30.9623 58.6585 31.4664 58.6585C31.9706 58.6585 32.4548 58.4666 32.8159 58.1239C33.177 57.7811 33.3865 57.3145 33.3998 56.8234ZM26.0168 55.6643V22.6267C26.0236 22.3751 25.9787 22.1247 25.8845 21.8905C25.7904 21.6561 25.6491 21.4425 25.4689 21.2621C25.2887 21.0819 25.0733 20.9387 24.8353 20.8408C24.5974 20.743 24.3418 20.6926 24.0836 20.6926C23.8252 20.6926 23.5696 20.743 23.3318 20.8408C23.0938 20.9387 22.8784 21.0819 22.6982 21.2621C22.518 21.4425 22.3767 21.6561 22.2825 21.8905C22.1884 22.1247 22.1435 22.3751 22.1502 22.6267V55.6643C22.1435 55.916 22.1884 56.1662 22.2825 56.4006C22.3767 56.6349 22.518 56.8486 22.6982 57.0288C22.8784 57.209 23.0938 57.3524 23.3318 57.4501C23.5696 57.548 23.8252 57.5985 24.0836 57.5985C24.3418 57.5985 24.5974 57.548 24.8353 57.4501C25.0733 57.3524 25.2887 57.209 25.4689 57.0288C25.6491 56.8486 25.7904 56.6349 25.8845 56.4006C25.9787 56.1662 26.0236 55.916 26.0168 55.6643ZM18.6338 35.131V18.2572C18.6338 17.7574 18.4301 17.278 18.0674 16.9246C17.7048 16.5712 17.2128 16.3726 16.6998 16.3726C16.1869 16.3726 15.6951 16.5712 15.3324 16.9246C14.9697 17.278 14.7659 17.7574 14.7659 18.2572V35.131C14.7659 35.6307 14.9697 36.11 15.3324 36.4635C15.6951 36.8169 16.1869 37.0154 16.6998 37.0154C17.2128 37.0154 17.7048 36.8169 18.0674 36.4635C18.4301 36.11 18.6338 35.6307 18.6338 35.131ZM18.6338 52.8251V45.5617C18.6338 45.0619 18.4301 44.5825 18.0674 44.2291C17.7048 43.8757 17.2128 43.6771 16.6998 43.6771C16.1869 43.6771 15.6951 43.8757 15.3324 44.2291C14.9697 44.5825 14.7659 45.0619 14.7659 45.5617V52.8317C14.7659 53.3315 14.9697 53.8107 15.3324 54.1643C15.6951 54.5177 16.1869 54.7161 16.6998 54.7161C17.2128 54.7161 17.7048 54.5177 18.0674 54.1643C18.4301 53.8107 18.6338 53.3315 18.6338 52.8317V52.8251ZM11.2509 36.4424V20.0114C11.2509 19.5116 11.0471 19.0324 10.6844 18.6788C10.3217 18.3254 9.82983 18.127 9.31691 18.127C8.804 18.127 8.3121 18.3254 7.94941 18.6788C7.58673 19.0324 7.38297 19.5116 7.38297 20.0114V36.4424C7.38297 36.9422 7.58673 37.4216 7.94941 37.775C8.3121 38.1284 8.804 38.3269 9.31691 38.3269C9.82983 38.3269 10.3217 38.1284 10.6844 37.775C11.0471 37.4216 11.2509 36.9422 11.2509 36.4424ZM3.86791 31.6092V23.7454C3.86791 23.2456 3.66416 22.7662 3.30146 22.4128C2.93877 22.0594 2.44687 21.8608 1.93396 21.8608C1.42104 21.8608 0.929127 22.0594 0.566442 22.4128C0.203755 22.7662 0 23.2456 0 23.7454V31.6092C0 32.1091 0.203755 32.5884 0.566442 32.9418C0.929127 33.2953 1.42104 33.4938 1.93396 33.4938C2.44687 33.4938 2.93877 33.2953 3.30146 32.9418C3.66416 32.5884 3.86791 32.1091 3.86791 31.6092Z" fill="url(#paint0_linear_790_31)"/>
<path d="M16.5821 85.6513C14.9783 84.9696 13.5424 83.8843 12.2745 82.3953C10.7945 81.968 9.51662 81.0455 8.66588 79.7905C7.77487 78.5055 7.32935 77.0034 7.32935 75.2843C7.31146 73.9682 7.61907 72.6673 8.22616 71.4918C8.79899 70.381 9.68202 69.4506 10.7736 68.8074C11.9116 68.1436 13.2178 67.804 14.5439 67.8268C15.9579 67.8268 17.2116 68.1537 18.3049 68.8074C19.392 69.4535 20.2718 70.3834 20.8443 71.4918C21.4509 72.6675 21.7581 73.9683 21.7398 75.2843C21.7398 77.0598 21.2809 78.5937 20.3631 79.8855C19.4752 81.1563 18.1464 82.072 16.6208 82.4643C16.8847 83.1561 17.2981 83.7846 17.8331 84.3072C18.3736 84.8526 19.0066 85.3028 19.7042 85.6383C20.3074 85.9405 20.9735 86.1041 21.6515 86.1162V86.6697C19.9075 86.6778 18.1808 86.331 16.5821 85.6513ZM17.6313 80.0809C18.3601 78.9522 18.7246 77.3507 18.7246 75.2765C18.7246 73.2021 18.3601 71.6007 17.6313 70.472C16.9033 69.3431 15.8756 68.7789 14.5479 68.7789C13.2203 68.7789 12.1956 69.3431 11.4739 70.472C10.7522 71.6007 10.3913 73.2021 10.3913 75.2765C10.3913 77.3507 10.7522 78.9522 11.4739 80.0809C12.1956 81.2097 13.2203 81.774 14.5479 81.774C15.8756 81.774 16.9033 81.2084 17.6313 80.077V80.0809Z" fill="#333333"/>
<path d="M24.1791 81.7448C23.5309 81.2238 23.2061 80.527 23.2061 79.6453C23.2061 78.9351 23.3776 78.3455 23.7206 77.8767C24.0637 77.4078 24.666 77.0514 25.5276 76.8074C26.3884 76.5652 27.5837 76.4444 29.1135 76.4453H29.441C29.441 75.2099 29.2664 74.3325 28.917 73.8132C28.5678 73.294 28.0501 73.0336 27.364 73.0318C26.8643 73.0117 26.372 73.1542 25.9646 73.4368C25.601 73.7061 25.3387 74.21 25.1775 74.9489H23.9745C23.9687 74.5353 24.0013 74.122 24.0721 73.7143C24.1338 73.3811 24.2893 73.0713 24.5213 72.8195C24.973 72.322 26.0662 72.0732 27.801 72.0732C29.2578 72.0732 30.3689 72.4462 31.1343 73.1919C31.8998 73.9378 32.2824 75.0562 32.2824 76.547V82.2995H30.4207L29.6561 81.341H29.5466C29.3809 81.574 29.1736 81.7761 28.9344 81.9375C28.4389 82.3205 27.7685 82.5124 26.923 82.5131C25.7432 82.5158 24.8286 82.2597 24.1791 81.7448ZM28.3663 81.2759C28.6022 81.1409 28.8158 80.9717 28.9999 80.7745C29.193 80.5713 29.3416 80.332 29.437 80.0713V77.4039H29.1095C28.0751 77.4039 27.3243 77.585 26.8574 77.947C26.3906 78.3091 26.1576 78.8734 26.1584 79.6401C26.1584 80.2236 26.2822 80.6712 26.5299 80.9828C26.6533 81.1376 26.813 81.2609 26.9956 81.3426C27.1784 81.4242 27.3785 81.4616 27.5792 81.4517C27.8532 81.4588 28.1245 81.3964 28.3663 81.2706V81.2759Z" fill="#333333"/>
<path d="M34.2681 81.642L40.0151 73.2481H37.4382C36.5197 73.2481 35.871 73.4079 35.4923 73.7274C35.1136 74.0469 34.9243 74.5618 34.9243 75.272H34.2681V73.9932C34.2681 72.8574 34.8877 72.2896 36.1271 72.2896H43.9111L37.7015 81.3437H43.4486V82.3024H34.2681V81.642Z" fill="#333333"/>
<path d="M45.8012 81.7437C45.1529 81.2228 44.8281 80.5259 44.8281 79.6443C44.8281 78.9341 44.9997 78.3445 45.3427 77.8756C45.6858 77.4068 46.2867 77.0521 47.1457 76.8115C48.0064 76.5693 49.2017 76.4487 50.7316 76.4495H51.055C51.055 75.214 50.8799 74.3366 50.5298 73.8174C50.1796 73.2981 49.6624 73.0377 48.9781 73.0359C48.4789 73.0154 47.9871 73.1574 47.5801 73.4397C47.2156 73.7089 46.9532 74.2128 46.7928 74.9518H45.59C45.5844 74.5381 45.6175 74.125 45.6889 73.7171C45.7501 73.3842 45.9051 73.0744 46.1366 72.8223C46.5883 72.3248 47.6816 72.0762 49.4165 72.0762C50.8733 72.0762 51.9844 72.449 52.7498 73.1949C53.5151 73.9407 53.8978 75.0589 53.8978 76.5497V82.3025H52.0441L51.2782 81.3439H51.1686C51.0029 81.5768 50.7956 81.7789 50.5564 81.9404C50.0621 82.3233 49.3937 82.5152 48.5517 82.516C47.3694 82.516 46.4524 82.2586 45.8012 81.7437ZM49.9886 81.2749C50.2251 81.1402 50.4391 80.9711 50.6233 80.7735C50.8155 80.5696 50.964 80.3306 51.0604 80.0702V77.4029H50.7316C49.6971 77.4029 48.9465 77.5839 48.4795 77.9459C48.0127 78.308 47.7796 78.8724 47.7805 79.6391C47.7805 80.2225 47.9045 80.6701 48.1522 80.9818C48.2754 81.1365 48.4351 81.2599 48.6178 81.3415C48.8004 81.4231 49.0005 81.4607 49.2013 81.4506C49.4744 81.4575 49.7447 81.3951 49.9859 81.2697L49.9886 81.2749Z" fill="#333333"/>
<path d="M62.845 81.8739C62.6574 82.008 62.4513 82.1155 62.2328 82.1929C61.6991 82.4081 61.1264 82.5171 60.5488 82.5134C59.034 82.5134 57.8716 82.0268 57.0617 81.0534C56.2518 80.08 55.8472 78.8268 55.8481 77.2933C55.8481 75.7591 56.2451 74.5054 57.039 73.5321C57.8329 72.5587 58.9664 72.0726 60.4392 72.0735C61.125 72.0504 61.7977 72.2615 62.341 72.6699C62.5821 72.8205 62.7902 73.0162 62.9532 73.2456H63.0628L63.8287 72.2871H65.6863V86.3527H62.845V81.8739ZM62.3196 81.2344C62.5116 81.1571 62.6892 81.0494 62.845 80.9152V74.4164C62.7047 74.1709 62.5357 73.9424 62.341 73.7352C61.8893 73.2664 61.3992 73.032 60.8709 73.032C60.142 73.032 59.6136 73.4119 59.2858 74.1715C58.9578 74.9313 58.794 75.9732 58.794 77.2972C58.794 80.1374 59.5227 81.5578 60.9804 81.5587C61.4476 81.563 61.9081 81.4524 62.3196 81.2371V81.2344Z" fill="#333333"/>
<path d="M68.485 81.6416C68.2352 81.3964 68.0807 81.074 68.048 80.7299C67.9803 80.189 67.9508 79.6442 67.9598 79.0993H68.7257C68.8222 79.7703 69.1364 80.3937 69.6224 80.8784C70.0893 81.3264 70.738 81.5504 71.5684 81.5504C73.0252 81.5504 73.7537 81.0673 73.7537 80.1008C73.755 79.9236 73.7133 79.7485 73.6317 79.59C73.5503 79.4315 73.4311 79.2942 73.2846 79.1893C72.8191 78.8634 72.3163 78.5915 71.7863 78.3791L70.6502 77.9103C69.7173 77.5126 69.0174 77.0785 68.5506 76.6079C68.2942 76.3436 68.1003 76.0279 67.9825 75.6829C67.8646 75.3379 67.8257 74.972 67.8683 74.6106C67.911 74.2495 68.0343 73.9016 68.2295 73.5918C68.4247 73.2818 68.6871 73.0173 68.9983 72.8166C69.7646 72.3191 70.767 72.0703 72.0054 72.0703C73.7109 72.0703 74.8843 72.3617 75.5258 72.9443C75.7727 73.1848 75.927 73.5008 75.9629 73.8391C76.03 74.383 76.059 74.9308 76.0497 75.4788H75.2853C75.1879 74.8079 74.8739 74.1848 74.3884 73.6997C73.9216 73.2534 73.2729 73.0297 72.4425 73.029C71.8188 73.029 71.3524 73.1592 71.0431 73.4197C70.8914 73.5512 70.7715 73.7139 70.6922 73.8962C70.613 74.0784 70.5762 74.2755 70.5847 74.4732C70.5801 74.6395 70.6119 74.8049 70.6782 74.958C70.7447 75.1113 70.8441 75.2489 70.9697 75.3616C71.3178 75.6534 71.713 75.8875 72.1391 76.0544L73.4503 76.587C74.5293 77.0272 75.3058 77.471 75.7799 77.9181C76.2539 78.3653 76.4904 78.9513 76.4895 79.6763C76.4895 80.5853 76.0779 81.2848 75.2545 81.7745C74.4313 82.2641 73.3491 82.5094 72.0081 82.5103C70.3009 82.5138 69.1265 82.2242 68.485 81.6416Z" fill="#333333"/>
<path d="M79.8324 81.7169C79.2782 81.1846 79.0011 80.4141 79.0011 79.4052V73.2488H77.6899V72.2903H79.0011V70.3719L80.0944 69.0942H81.8439V72.2903H84.2497V73.2488H81.8439V79.5302C81.8439 80.2978 81.9384 80.827 82.1273 81.1179C82.2159 81.2587 82.3419 81.3737 82.4919 81.4507C82.642 81.5277 82.8106 81.5639 82.98 81.5554C83.4045 81.5519 83.823 81.4572 84.2056 81.278C84.366 81.1912 84.5335 81.0918 84.708 80.9798L85.0141 81.5763C84.8007 81.749 84.5742 81.9058 84.3365 82.0451C83.6646 82.3704 82.9215 82.5313 82.1714 82.514C81.1664 82.5157 80.3867 82.25 79.8324 81.7169Z" fill="#333333"/>
<path d="M86.5761 81.7445C85.9278 81.2236 85.603 80.5267 85.603 79.6451C85.603 78.9347 85.7746 78.3453 86.1176 77.8763C86.4607 77.4076 87.0616 77.0528 87.9206 76.8123C88.7813 76.5701 89.9766 76.4495 91.5065 76.4502H91.834C91.834 75.2148 91.6593 74.3374 91.3099 73.8181C90.9607 73.2989 90.443 73.0385 89.757 73.0367C89.2577 73.0163 88.7657 73.159 88.3589 73.4417C87.9937 73.711 87.7313 74.2149 87.5717 74.9539H86.3689C86.3629 74.5402 86.3956 74.1269 86.4664 73.7192C86.528 73.386 86.6836 73.0763 86.9156 72.8244C87.3673 72.3269 88.4605 72.0781 90.1953 72.0781C91.6521 72.0781 92.7633 72.4511 93.5286 73.197C94.2941 73.9428 94.6766 75.0611 94.6766 76.5518V82.3046H92.819L92.0531 81.3459H91.9435C91.7778 81.5789 91.5705 81.781 91.3313 81.9425C90.8352 82.3254 90.1646 82.5173 89.32 82.5181C88.1402 82.5173 87.2255 82.2594 86.5761 81.7445ZM90.7633 81.2757C90.9992 81.1405 91.2128 80.9715 91.3969 80.7743C91.59 80.571 91.7386 80.3318 91.834 80.0709V77.4037H91.5065C90.472 77.4037 89.7213 77.5846 89.2544 77.9467C88.7876 78.3088 88.5545 78.8732 88.5554 79.6398C88.5554 80.2233 88.6792 80.6708 88.9269 80.9826C89.0503 81.1372 89.21 81.2607 89.3926 81.3423C89.5753 81.4239 89.7754 81.4613 89.9762 81.4514C90.2502 81.4584 90.5214 81.3962 90.7633 81.2704V81.2757Z" fill="#333333"/>
<path d="M97.5662 75.0585C97.5662 74.3345 97.4677 73.7984 97.2707 73.4501C97.0739 73.1019 96.6693 72.9283 96.0573 72.9292H95.8394V72.291H98.0032C98.4005 72.2748 98.7971 72.3359 99.17 72.4707C99.4572 72.593 99.693 72.8071 99.8383 73.0777C100.582 72.41 101.647 72.0762 103.031 72.0762C104.416 72.0762 105.454 72.3921 106.147 73.0242C106.839 73.6563 107.185 74.647 107.185 75.9962V82.3025H104.34V75.9754C104.34 74.9943 104.154 74.2767 103.782 73.8226C103.602 73.6012 103.37 73.4246 103.106 73.3074C102.842 73.1901 102.553 73.1354 102.263 73.148C101.858 73.1402 101.455 73.2016 101.072 73.329C100.766 73.4281 100.485 73.5917 100.251 73.8082L100.317 74.1066C100.388 74.3778 100.417 74.6578 100.405 74.9374V82.3089H97.5662V75.0585Z" fill="#333333"/>
<path d="M7.81446 89.304C7.81446 88.5799 7.71244 88.0438 7.50839 87.6956C7.30435 87.3475 6.89627 87.1738 6.28414 87.1746H6.06494V86.5352H8.6872C9.21202 86.5352 9.61298 86.622 9.89009 86.7956C10.1875 86.9948 10.3981 87.2948 10.4808 87.6369C10.6153 88.1843 10.6742 88.7466 10.6559 89.3093V91.1834C10.8714 91.0328 11.0978 90.898 11.3335 90.7796C11.8708 90.5205 12.4609 90.3822 13.0603 90.3745C14.24 90.3745 15.2277 90.6694 16.0234 91.259C16.8191 91.8484 17.2161 92.8531 17.2143 94.2726V100.601H14.3741V94.3756C14.3741 93.3527 14.1879 92.6073 13.8155 92.1394C13.6561 91.92 13.4446 91.7414 13.1991 91.619C12.9535 91.4965 12.6813 91.4337 12.4054 91.4361C11.9622 91.4509 11.5315 91.5833 11.1598 91.8189C10.9799 91.9224 10.8115 92.0437 10.6572 92.181V100.597H7.81446V89.304Z" fill="#333333"/>
<path d="M20.0038 100.032C19.3542 99.5114 19.0299 98.812 19.0308 97.9343C19.0308 97.2248 19.2018 96.6354 19.544 96.1656C19.8862 95.6959 20.4876 95.3408 21.3484 95.1003C22.2081 94.8598 23.4035 94.7391 24.9342 94.7382H25.2604C25.2604 93.5035 25.0852 92.6266 24.7351 92.1073C24.3862 91.5865 23.8676 91.3259 23.1834 91.3259C22.6836 91.307 22.1918 91.4509 21.7853 91.7349C21.421 92.0041 21.1586 92.508 20.9981 93.247H19.7953C19.7898 92.8328 19.8229 92.4193 19.8941 92.0109C19.9571 91.6802 20.112 91.3726 20.3419 91.1214C20.7937 90.6248 21.8869 90.3765 23.6217 90.3765C25.0785 90.3765 26.1901 90.7495 26.9563 91.4953C27.7227 92.241 28.1053 93.3594 28.1044 94.8502V100.603H26.2454L25.4795 99.6442H25.3713C25.2056 99.8773 24.9983 100.079 24.7591 100.241C24.2636 100.624 23.5932 100.815 22.7477 100.815C21.5662 100.812 20.6515 100.551 20.0038 100.032ZM24.1911 99.5649C24.4277 99.4302 24.6417 99.261 24.826 99.0635C25.0176 98.8591 25.1661 98.6203 25.263 98.3601V95.6968H24.9355C23.9002 95.6968 23.1494 95.8782 22.6835 96.2411C22.2176 96.6041 21.9841 97.1684 21.9832 97.9343C21.9832 98.5168 22.1069 98.9644 22.3547 99.277C22.4783 99.4317 22.6381 99.5552 22.8211 99.6367C23.004 99.7183 23.2044 99.7557 23.4052 99.7458C23.6789 99.753 23.9498 99.6906 24.1911 99.5649Z" fill="#333333"/>
<path d="M30.6392 89.304C30.6392 88.5799 30.5372 88.0438 30.3331 87.6956C30.1291 87.3475 29.721 87.1738 29.1089 87.1746H28.8896V86.5352H31.5132C32.039 86.5352 32.4399 86.622 32.7162 86.7956C33.0136 86.9948 33.2242 87.2948 33.3069 87.6369C33.4408 88.1845 33.4993 88.7468 33.4806 89.3093V100.601H30.6392V89.304Z" fill="#333333"/>
<path d="M42.6861 100.172C42.4992 100.307 42.2929 100.414 42.0741 100.491C41.5406 100.706 40.9686 100.814 40.3914 100.81C38.8767 100.81 37.7143 100.324 36.9044 99.3513C36.0945 98.3789 35.6881 97.1255 35.6855 95.5913C35.6855 94.0571 36.0825 92.8034 36.8764 91.83C37.6703 90.8567 38.8036 90.3705 40.2765 90.3713C40.9623 90.3487 41.6348 90.5596 42.1783 90.9679C42.4191 91.1183 42.627 91.3135 42.7904 91.5422H42.9027L43.6686 90.5837H45.5263V104.649H42.6861V100.172ZM42.1622 99.5323C42.3537 99.4548 42.5308 99.347 42.6861 99.2132V92.7143C42.5472 92.4686 42.3785 92.2398 42.1837 92.0331C41.7319 91.5644 41.2419 91.33 40.7135 91.33C39.9846 91.33 39.4562 91.7097 39.1284 92.4695C38.8005 93.2292 38.6366 94.2711 38.6366 95.5952C38.6366 98.4353 39.3654 99.8553 40.8231 99.8553C41.2902 99.8592 41.7509 99.7481 42.1622 99.5323Z" fill="#333333"/>
<path d="M48.8523 104.113C49.6543 104.113 50.3024 103.964 50.797 103.665C51.2915 103.366 51.6925 102.827 51.9999 102.046L52.4596 100.896L48.5235 92.5023C48.0424 91.4786 47.3648 90.9103 46.4907 90.7974V90.3716H48.4139C49.0158 90.3608 49.6079 90.5195 50.1194 90.8287C50.6119 91.1308 51.0063 91.563 51.2568 92.0751L53.7707 97.4448L56.4438 90.5839H57.6038L53.18 101.982C52.7728 103.09 52.2993 103.846 51.7592 104.251C51.2193 104.656 50.5417 104.858 49.7265 104.859H48.8523V104.113Z" fill="#333333"/>
<path d="M59.7171 93.3522C59.7171 92.6281 59.619 92.0919 59.4229 91.7438C59.227 91.3956 58.8224 91.222 58.2094 91.2229H57.9902V90.5833H60.1555C60.5536 90.5678 60.9512 90.6293 61.3249 90.7644C61.6117 90.8878 61.8473 91.1021 61.9931 91.3726C62.7362 90.7041 63.8001 90.3702 65.1848 90.3711C66.5695 90.372 67.6066 90.6875 68.2961 91.318C68.9886 91.95 69.3346 92.9408 69.3346 94.29V100.596H66.4958V94.2678C66.4958 93.2885 66.3096 92.5712 65.9372 92.1163C65.7576 91.8941 65.5264 91.7165 65.2628 91.5981C64.999 91.4796 64.7103 91.4238 64.4202 91.4352C64.0151 91.4275 63.6117 91.4887 63.2281 91.6161C62.9217 91.715 62.6413 91.8787 62.4075 92.0954L62.4743 92.3937C62.544 92.6652 62.5732 92.945 62.5611 93.2246V100.596H59.7171V93.3522Z" fill="#333333"/>
<path d="M72.1467 100.033C71.4991 99.5116 71.1747 98.8123 71.1738 97.9345C71.1738 97.2252 71.3454 96.6356 71.6884 96.1659C72.0315 95.6961 72.6324 95.341 73.4913 95.1005C74.3521 94.86 75.5474 94.7393 77.0773 94.7384H77.4048C77.4048 93.5037 77.2301 92.6268 76.8807 92.1075C76.5315 91.5884 76.0138 91.3279 75.3277 91.3262C74.8281 91.306 74.3358 91.4485 73.9283 91.7312C73.5649 92.0004 73.3024 92.5043 73.1412 93.2433H71.9382C71.9324 92.8293 71.965 92.4156 72.0358 92.0072C72.0978 91.6744 72.2533 91.3647 72.485 91.1126C72.9367 90.616 74.0295 90.3677 75.7634 90.3677C77.2211 90.3677 78.3349 90.7405 79.1048 91.4864C79.8746 92.2322 80.2573 93.3505 80.2528 94.8412V100.594H78.3884L77.6239 99.6354H77.5184C77.3527 99.8683 77.1452 100.07 76.9062 100.232C76.4099 100.615 75.7415 100.806 74.9014 100.806C73.7146 100.809 72.7963 100.551 72.1467 100.033ZM76.3341 99.5651C76.57 99.4301 76.7836 99.2609 76.9677 99.0636C77.1602 98.8601 77.3088 98.6209 77.4048 98.3603V95.6969H77.0773C76.0428 95.6969 75.2921 95.8785 74.8252 96.2413C74.3584 96.6043 74.1253 97.1687 74.1262 97.9345C74.1262 98.517 74.25 98.9647 74.4977 99.2772C74.6211 99.4319 74.7808 99.5553 74.9634 99.6369C75.146 99.7185 75.3462 99.7561 75.547 99.746C75.821 99.7532 76.0922 99.6908 76.3341 99.5651Z" fill="#333333"/>
<defs>
<linearGradient id="paint0_linear_790_31" x1="25.7601" y1="-2.13692" x2="89.8409" y2="63.6234" gradientUnits="userSpaceOnUse">
<stop stop-color="#F35C5F"/>
<stop offset="1" stop-color="#8B3791"/>
</linearGradient>
</defs>
</svg>
