<svg width="107" height="35" viewBox="0 0 107 35" fill="none" xmlns="http://www.w3.org/2000/svg">
<path fill-rule="evenodd" clip-rule="evenodd" d="M52.9802 0.608457L45.8305 33.9105H37.1844L44.3363 0.608457H52.9802ZM89.3564 22.1117L93.9077 9.60673L96.5273 22.1117H89.3564ZM99.0037 33.9105H107L100.022 0.608457H92.6392C90.9807 0.608457 89.5819 1.57009 88.9591 3.05189L75.9871 33.9105H85.0669L86.8688 28.9372H97.9623L99.0037 33.9105ZM64.3241 9.83704C64.3491 8.64125 65.4916 7.37251 67.9909 7.04812C69.2309 6.88689 72.6435 6.76213 76.5164 8.53761L78.0336 1.47796C75.951 0.723622 73.276 0 69.9454 0C61.4009 0 55.3858 4.52793 55.3342 11.0098C55.2807 15.8026 59.6277 18.4764 62.9046 20.0694C66.2713 21.703 67.4043 22.749 67.389 24.2077C67.3679 26.4439 64.7024 27.4285 62.2167 27.4689C57.868 27.536 55.3457 26.298 53.3357 25.3652L51.769 32.661C53.7885 33.5861 57.5163 34.3884 61.3854 34.4307C70.4671 34.4307 76.4094 29.9583 76.4382 23.037C76.4763 14.2479 64.2383 13.7642 64.3241 9.83704ZM40.6255 0.608457L26.6182 33.9105H17.4774L10.5854 7.3322C10.165 5.69494 9.80196 5.09607 8.52942 4.407C6.45248 3.28222 3.01892 2.23037 0 1.57393L0.206358 0.608457H14.9189C16.7914 0.608457 18.4784 1.85225 18.9045 4.00392L22.5464 23.2749L31.544 0.608457H40.6255Z" fill="#1434CB"/>
</svg>
