<svg width="153" height="36" viewBox="0 0 153 36" fill="none" xmlns="http://www.w3.org/2000/svg">
<path fill-rule="evenodd" clip-rule="evenodd" d="M18.469 19.6253C21.6272 20.1128 22.0541 21.9814 22.3094 23.7207L22.3519 24.0172L22.3809 24.219L22.5346 25.2426C22.8354 27.1968 23.4632 31.2533 23.4632 33.37C23.4632 33.8991 23.4166 34.3052 23.3316 34.5283C23.19 34.8721 22.777 35.2021 22.207 35.4771C20.8274 35.8166 19.3855 36.0003 17.9003 36.0003C17.743 36.0003 17.5883 35.9927 17.4331 35.9881C16.8328 35.8175 16.3816 35.5329 16.1427 35.1439C15.4216 33.9699 15.378 31.3542 15.3636 28.2974L15.3619 27.9429L15.3561 27.0267C15.3327 23.7908 15.3124 21.0008 16.4881 19.9995C16.9434 19.6144 17.5906 19.487 18.469 19.6253ZM11.5834 26.6704C12.2678 26.632 12.7079 29.9982 12.7964 32.5508C12.8583 34.328 12.6717 35.0591 12.3738 35.3214C12.0364 35.209 11.7049 35.087 11.3783 34.9547C11.1604 34.5587 10.9938 33.9359 10.888 33.1199C10.5649 30.556 10.8456 26.7156 11.5834 26.6704ZM28.7412 31.7008C28.6985 31.9347 28.6383 32.1153 28.564 32.2677C27.9789 32.7374 27.3638 33.1684 26.7203 33.5563C26.5152 33.5908 26.3333 33.5668 26.2442 33.4163C25.3913 31.9176 25.0711 27.2157 25.8966 26.8065C26.9728 26.2866 28.9007 30.888 28.7412 31.7008ZM17.6456 0.710938C27.255 0.710938 35.0694 8.32088 35.2849 17.7902L35.2892 18.1174V18.2688C35.2716 22.5462 33.6976 26.4596 31.1042 29.4885C31.0102 29.4414 30.8385 29.2868 30.5277 28.8218C30.206 28.3543 27.4318 24.0849 27.4318 19.1916C27.4318 18.2312 28.816 16.7312 30.0409 15.4145C30.9565 14.4236 31.8239 13.489 32.1432 12.7544C32.5501 11.8066 32.2654 11.1447 31.8153 10.9204C31.4078 10.721 30.796 10.8664 30.3668 11.6289C29.6623 12.8629 29.4366 13.0935 28.409 13.9192C27.3978 14.7444 25.7902 15.5751 25.7902 14.4998C25.7902 13.9192 26.6857 12.6042 27.128 11.6825C27.5796 10.7505 27.0928 10.0758 26.1601 10.0758C24.3285 10.0758 23.1127 12.409 23.1127 13.2174C23.1127 14.0251 23.5045 14.1401 23.5045 15.0806C23.5045 16.0283 21.4948 17.2575 19.6017 17.2575C17.7792 17.2575 16.7223 16.8885 16.2844 15.8493L16.2285 15.7034L16.1018 15.3289C15.6528 14.0164 15.3306 13.0646 14.7698 12.0699C14.4722 11.5439 14.0128 11.1792 13.6154 10.8583C13.0961 10.455 12.8267 10.0836 12.7704 9.80658C12.7186 9.53178 12.6907 9.0139 13.5785 7.82009C14.4643 6.63308 14.5885 5.73635 14.1452 5.27365C13.9845 5.10906 13.7105 5.0036 13.3588 5.0036C12.7366 5.0036 11.872 5.33328 10.981 6.23884C9.59594 7.65808 10.3822 9.00557 10.3822 9.5971C10.3822 10.1882 10.1285 10.5226 9.29732 11.3268C8.46003 12.1346 8.17107 12.8272 8.07532 15.6106C8.03863 17.0448 7.78605 17.8703 7.55931 18.6025C7.36339 19.2441 7.1832 19.8472 7.17346 20.7188C7.15795 21.6846 7.31873 22.307 7.50633 23.0251C7.69052 23.6889 7.88615 24.4496 8.01151 25.7218C8.21086 27.6913 8.14156 29.355 7.77908 31.0554L7.68235 31.4813L7.65974 31.6038C7.58551 31.9026 7.49728 32.2655 7.37801 32.4015C2.91221 29.2296 0 24.0493 0 18.1937C0 8.53903 7.89984 0.710938 17.6456 0.710938Z" fill="#F14635"/>
<path d="M101.753 12.6854C103.483 12.6854 104.828 13.2973 105.788 14.5211C106.748 15.7449 107.228 17.4272 107.228 19.5677V19.7669C107.228 21.8578 106.737 23.5275 105.755 24.7762C104.773 26.0249 103.448 26.6492 101.778 26.6492C100.49 26.6492 99.43 26.197 98.5994 25.2926V32.0873H94.227V12.9344H98.3141L98.444 14.179C99.2829 13.1833 100.386 12.6854 101.753 12.6854ZM71.2623 12.6854C73.0527 12.6854 74.4671 13.1045 75.5051 13.9424C76.5431 14.7805 77.0751 15.9297 77.1011 17.3899V23.3513C77.1184 24.5875 77.3173 25.5332 77.6979 26.1887V26.4003H73.3252C73.1697 26.1265 73.0311 25.7241 72.9102 25.1932C72.1057 26.1638 70.9812 26.6492 69.5366 26.6492C68.2131 26.6492 67.0887 26.2655 66.1631 25.498C65.2376 24.7305 64.7748 23.766 64.7748 22.6044C64.7748 21.1443 65.337 20.0406 66.4616 19.294C67.5861 18.5472 69.2208 18.1738 71.3661 18.1738H72.7154V17.4645C72.7154 16.2282 72.1576 15.6101 71.0417 15.6101C70.0037 15.6101 69.4847 16.0997 69.4847 17.0786H65.1121C65.1121 15.776 65.6895 14.7183 66.8443 13.9051C67.9991 13.092 69.4717 12.6854 71.2623 12.6854ZM85.4955 12.6854C87.3464 12.6854 88.8342 13.0879 89.9587 13.8926C91.0833 14.6975 91.6455 15.7553 91.6455 17.0663H87.26C87.26 15.9877 86.6675 15.4484 85.4824 15.4484C85.0239 15.4484 84.639 15.5707 84.3277 15.8154C84.0162 16.0603 83.8605 16.3652 83.8605 16.7303C83.8605 17.1037 84.0508 17.4065 84.4314 17.6387C84.812 17.871 85.4196 18.0619 86.2543 18.2112C87.0891 18.3607 87.8223 18.539 88.4537 18.7464C90.5644 19.4433 91.6194 20.6919 91.6194 22.4924C91.6194 23.7204 91.0509 24.7202 89.9134 25.4917C88.7757 26.2634 87.3033 26.6492 85.4955 26.6492C84.293 26.6492 83.2203 26.4418 82.2776 26.0269C81.3347 25.6121 80.5995 25.0479 80.0718 24.3344C79.5441 23.6208 79.2803 22.87 79.2803 22.0818H83.3675C83.3847 22.704 83.601 23.1583 84.0162 23.4445C84.4314 23.7307 84.9632 23.8739 85.6121 23.8739C86.2089 23.8739 86.6567 23.7577 86.955 23.5255C87.2534 23.2931 87.4026 22.9902 87.4026 22.6169C87.4026 22.2601 87.2081 21.9738 86.8187 21.7581C86.4294 21.5425 85.6898 21.3185 84.6001 21.0861C83.5103 20.8539 82.6107 20.5489 81.9012 20.1713C81.192 19.7939 80.6514 19.3355 80.2794 18.7962C79.9075 18.2569 79.7215 17.6387 79.7215 16.9417C79.7215 15.7055 80.2535 14.6872 81.3173 13.8864C82.3813 13.0858 83.774 12.6854 85.4955 12.6854ZM52.6437 7.2603V16.2697L58.8322 7.2603H64.4634L57.5481 16.2946L63.932 26.4003H58.5344L54.512 19.6549L52.6437 21.6212V26.4003H48.0894V7.2603H52.6437ZM114.299 12.9344V26.4003H109.913V12.9344H114.299ZM152.857 12.9344V15.1994L146.605 23.1644H153.001V26.4003H141.077V24.0606L147.305 16.1702H139.968L142.89 12.9344H152.857ZM120.162 22.0566C121.358 22.0566 122.327 22.9897 122.327 24.141C122.327 25.292 121.358 26.2252 120.162 26.2252C118.966 26.2252 117.997 25.292 117.997 24.141C117.997 22.9897 118.966 22.0566 120.162 22.0566ZM130.316 7.25977V17.3168L130.758 16.7622L134.063 12.8675H139.318L134.388 18.3522L139.644 26.203H134.622L131.552 21.2361L130.316 22.4069V26.203H125.932V7.25977H130.316ZM72.7154 20.4141H71.4439C69.9215 20.4141 69.1604 21.0695 69.1604 22.3805C69.1604 22.7621 69.2944 23.0712 69.5625 23.3077C69.8307 23.5441 70.1724 23.6622 70.5876 23.6622C71.1325 23.6622 71.5844 23.5504 71.9434 23.3264C72.3024 23.1022 72.5597 22.8492 72.7154 22.5671V20.4141ZM100.676 15.9213C99.6376 15.9213 98.9454 16.2781 98.5994 16.9915V22.2934C98.9802 23.04 99.6809 23.4135 100.702 23.4135C102.094 23.4135 102.812 22.2601 102.855 19.9535V19.5055C102.855 17.1161 102.129 15.9213 100.676 15.9213ZM112.165 7.25977C113.361 7.25977 114.33 8.23738 114.33 9.44334C114.33 10.6493 113.361 11.6269 112.165 11.6269C110.97 11.6269 110.001 10.6493 110.001 9.44334C110.001 8.23738 110.97 7.25977 112.165 7.25977Z" fill="black"/>
</svg>
