<svg width="83" height="34" viewBox="0 0 83 34" fill="none" xmlns="http://www.w3.org/2000/svg">
<path fill-rule="evenodd" clip-rule="evenodd" d="M38.0334 26.6463V16.7378H43.1473C45.2429 16.7378 47.0116 16.0356 48.4536 14.6508L48.7996 14.2997C51.4335 11.4324 51.2605 6.96571 48.4536 4.31303C47.0501 2.90866 45.1275 2.14797 43.1473 2.18698H34.938V26.6463H38.0334ZM38.0336 13.734V5.19076H43.2254C44.3407 5.19076 45.3982 5.61986 46.1865 6.40007C47.8595 8.03849 47.8979 10.7692 46.2827 12.4661C45.4944 13.3049 44.3791 13.7729 43.2254 13.734H38.0336ZM63.2381 11.2182C61.9115 9.98932 60.1044 9.36517 57.8166 9.36517C54.875 9.36517 52.664 10.4574 51.2029 12.6225L53.9329 14.3584C54.9326 12.8761 56.2977 12.1348 58.028 12.1348C59.1239 12.1348 60.1813 12.5445 61.008 13.2856C61.8154 13.9879 62.2768 15.0021 62.2768 16.0749V16.7966C61.0849 16.1334 59.5853 15.7823 57.7396 15.7823C55.5863 15.7823 53.8561 16.2895 52.5679 17.3232C51.2798 18.357 50.6261 19.7224 50.6261 21.4583C50.5876 23.0382 51.2606 24.5401 52.4526 25.5544C53.6638 26.6466 55.2018 27.1928 57.009 27.1928C59.1431 27.1928 60.8349 26.237 62.1231 24.3256H62.2576V26.6466H65.2183V16.3285C65.2183 14.1634 64.5647 12.447 63.2381 11.2182ZM54.8371 23.5647C54.2026 23.0966 53.818 22.3359 53.818 21.5167C53.818 20.6 54.2411 19.8393 55.0678 19.2346C55.9139 18.63 56.9715 18.3178 58.2214 18.3178C59.9519 18.2984 61.2979 18.6885 62.2594 19.4686C62.2594 20.795 61.7402 21.9458 60.7211 22.921C59.7981 23.8573 58.5482 24.384 57.2406 24.384C56.3754 24.4035 55.5294 24.1109 54.8371 23.5647ZM71.8705 34L82.2139 9.91129H78.8494L74.0622 21.9264H74.0046L69.102 9.91129H65.7375L72.5242 25.5739L68.6791 34H71.8705Z" fill="#3C4043"/>
<path d="M27.3468 14.5913C27.3468 13.6356 27.27 12.6799 27.1162 11.7437H14.062V17.1465H21.5407C21.2331 18.8825 20.2334 20.4429 18.7722 21.4181V24.929H23.2326C25.8473 22.4909 27.3468 18.8825 27.3468 14.5913Z" fill="#4285F4"/>
<path d="M14.0633 28.3227C17.793 28.3227 20.9459 27.0744 23.2339 24.9288L18.7735 21.4179C17.5239 22.2761 15.9281 22.7638 14.0633 22.7638C10.4488 22.7638 7.39195 20.2866 6.29608 16.9707H1.70117V20.5987C4.04668 25.3385 8.83386 28.3227 14.0633 28.3227Z" fill="#34A853"/>
<path d="M6.29592 16.9704C5.71905 15.2345 5.71905 13.3424 6.29592 11.587V7.97852H1.70026C-0.280293 11.9381 -0.280293 16.6193 1.70026 20.5788L6.29592 16.9704Z" fill="#FBBC04"/>
<path d="M14.0633 5.79514C16.0435 5.75613 17.9468 6.51683 19.3695 7.90169L23.33 3.88365C20.8114 1.50403 17.5047 0.197191 14.0633 0.2362C8.83386 0.2362 4.04668 3.23998 1.70117 7.97971L6.29608 11.6077C7.39195 8.27229 10.4488 5.79514 14.0633 5.79514Z" fill="#EA4335"/>
</svg>
