<svg width="85" height="35" viewBox="0 0 85 35" fill="none" xmlns="http://www.w3.org/2000/svg">
<path fill-rule="evenodd" clip-rule="evenodd" d="M11.2416 6.49377C12.8207 6.62698 14.3998 5.69454 15.3867 4.51234C16.3572 3.29684 16.9987 1.66507 16.8342 0C15.436 0.0666028 13.7089 0.93244 12.7219 2.14794C11.8172 3.19694 11.0442 4.89531 11.2416 6.49377ZM30.0264 27.94V1.98158H39.6491C44.6166 1.98158 48.0874 5.44493 48.0874 10.5067C48.0874 15.5685 44.5509 19.0652 39.5174 19.0652H34.007V27.94H30.0264ZM16.8176 6.8105C15.4265 6.72944 14.1571 7.234 13.1319 7.64155C12.4721 7.90382 11.9133 8.12591 11.4882 8.12591C11.0112 8.12591 10.4294 7.89194 9.77613 7.62925C8.92018 7.28504 7.94159 6.89151 6.91537 6.91041C4.56318 6.9437 2.37546 8.29241 1.17468 10.4403C-1.29267 14.7362 0.533167 21.0968 2.91827 24.5934C4.08616 26.3251 5.48432 28.2233 7.3266 28.1567C8.13709 28.1257 8.72012 27.8753 9.3235 27.6162C10.0181 27.3178 10.7398 27.0078 11.8666 27.0078C12.9542 27.0078 13.6443 27.3097 14.3067 27.5995C14.9365 27.875 15.5414 28.1396 16.4393 28.1233C18.3474 28.0901 19.5482 26.3918 20.7161 24.66C21.9765 22.8015 22.5303 20.9876 22.6143 20.7124L22.6242 20.6806C22.6221 20.6784 22.6068 20.6714 22.5795 20.6587C22.1582 20.4635 18.9376 18.971 18.9067 14.9693C18.8756 11.6105 21.4609 9.90873 21.8678 9.64084C21.8926 9.62454 21.9093 9.61355 21.9169 9.60781C20.272 7.14351 17.706 6.87711 16.8176 6.8105ZM55.358 28.1396C57.8582 28.1396 60.1776 26.8574 61.2303 24.826H61.3126V27.9398H64.9971V15.0188C64.9971 11.2724 62.0363 8.85806 57.4799 8.85806C53.2525 8.85806 50.1273 11.3057 50.0121 14.6692H53.598C53.8941 13.0706 55.358 12.0217 57.3648 12.0217C59.7993 12.0217 61.1646 13.1706 61.1646 15.2852V16.7172L56.1969 17.0169C51.5747 17.3 49.0744 19.2148 49.0744 22.5449C49.0744 25.9084 51.6569 28.1396 55.358 28.1396ZM56.4269 25.0591C54.305 25.0591 52.9562 24.0268 52.9562 22.445C52.9562 20.8131 54.2557 19.8641 56.7395 19.7142L61.1642 19.4311V20.8963C61.1642 23.3274 59.1245 25.0591 56.4269 25.0591ZM77.2186 28.9558C75.623 33.5014 73.7971 35 69.9153 35C69.6192 35 68.6322 34.9668 68.4019 34.9002V31.7864C68.6486 31.8198 69.2572 31.8531 69.5698 31.8531C71.3298 31.8531 72.3168 31.1038 72.9254 29.1556L73.2872 28.0068L66.5431 9.10822H70.7047L75.3927 24.4435H75.475L80.1629 9.10822H84.2094L77.2186 28.9558ZM34.0066 5.37799H38.596C42.0502 5.37799 44.0241 7.24287 44.0241 10.5231C44.0241 13.8033 42.0502 15.6847 38.5795 15.6847H34.0066V5.37799Z" fill="black"/>
</svg>
